<svg width="20" height="20" viewBox="0 0 20 20" fill="none" xmlns="http://www.w3.org/2000/svg">
<g clip-path="url(#clip0_10323_13076)">
<path d="M9.9998 20C9.83402 20 9.67598 19.9298 9.56488 19.8067L7.80156 17.8536C7.70434 17.7459 7.65055 17.606 7.65055 17.4609V10.0821C6.83617 9.68098 6.13945 9.0791 5.61961 8.32402C5.00852 7.43637 4.68555 6.39559 4.68555 5.31426C4.68555 2.38395 7.06949 0 9.9998 0C12.9301 0 15.3141 2.38395 15.3141 5.31426C15.3141 6.39559 14.9911 7.43637 14.38 8.32402C13.8602 9.07914 13.1634 9.68098 12.3491 10.0821V11.0808C12.3491 11.2037 12.3105 11.3234 12.2387 11.4231L11.7396 12.1164L12.2353 12.7911C12.3092 12.8917 12.3491 13.0132 12.3491 13.138V14.3011C12.3491 14.4401 12.2996 14.5745 12.2096 14.6805L11.7276 15.2478L12.2359 15.942C12.3095 16.0424 12.3491 16.1636 12.3491 16.2881V17.4609C12.3491 17.606 12.2953 17.7459 12.198 17.8536L10.4347 19.8067C10.3236 19.9298 10.1656 20 9.9998 20ZM8.82242 17.2355L9.9998 18.5397L11.1772 17.2355V16.4797L10.5089 15.5669C10.3487 15.3481 10.3595 15.048 10.5351 14.8414L11.1772 14.0857V13.3301L10.543 12.4669C10.3926 12.2621 10.3913 11.9838 10.5396 11.7777L11.1772 10.8919V9.7025C11.1772 9.46332 11.3226 9.24813 11.5445 9.15891C13.1226 8.52422 14.1422 7.01512 14.1422 5.31426C14.1422 3.03016 12.2839 1.17188 9.9998 1.17188C7.71566 1.17188 5.85742 3.03016 5.85742 5.31426C5.85742 7.01508 6.87707 8.52422 8.45512 9.15891C8.67703 9.24816 8.82242 9.46332 8.82242 9.7025V17.2355Z" fill="#AFAFAF"/>
<path d="M10 5.85938C9.03074 5.85938 8.24219 5.07082 8.24219 4.10156C8.24219 3.1323 9.03074 2.34375 10 2.34375C10.9693 2.34375 11.7578 3.1323 11.7578 4.10156C11.7578 5.07082 10.9693 5.85938 10 5.85938ZM10 3.51562C9.67691 3.51562 9.41406 3.77848 9.41406 4.10156C9.41406 4.42465 9.67691 4.6875 10 4.6875C10.3231 4.6875 10.5859 4.42465 10.5859 4.10156C10.5859 3.77848 10.3231 3.51562 10 3.51562Z" fill="#AFAFAF"/>
</g>
<defs>
<clipPath id="clip0_10323_13076">
<rect width="20" height="20" fill="white"/>
</clipPath>
</defs>
</svg>
