<svg width="20" height="20" viewBox="0 0 20 20" fill="none" xmlns="http://www.w3.org/2000/svg">
<g clip-path="url(#clip0_10323_13074)">
<path d="M20 4.35028C20 3.33543 19.1743 2.50977 18.1595 2.50977H1.84052C0.825863 2.5098 0.000351564 3.33508 0 4.35059V4.35091V15.6478C0 16.6753 0.834066 17.4889 1.84114 17.4889H18.1588C19.1863 17.4889 20 16.6549 20 15.6478V4.35091C20 4.35083 20 4.35075 20 4.35067C20 4.35055 20 4.35044 20 4.35028V4.35028ZM1.84052 3.68168H18.1595C18.5282 3.68168 18.8281 3.98165 18.8281 4.35126C18.8281 4.54766 18.7305 4.72997 18.5668 4.83903L10.3713 10.303C10.1458 10.4533 9.8543 10.4534 9.62875 10.303C9.62875 10.303 1.43301 4.83892 1.43317 4.83903C1.43321 4.83907 1.43305 4.83895 1.43301 4.83892C1.2695 4.72997 1.17188 4.54766 1.17188 4.35028C1.17188 3.98161 1.47184 3.68168 1.84052 3.68168V3.68168ZM18.1589 16.317H1.84114C1.47633 16.317 1.17188 16.0221 1.17188 15.6478V6.0733L8.97867 11.278C9.2889 11.4848 9.64445 11.5882 10 11.5882C10.3556 11.5882 10.7112 11.4848 11.0214 11.278L18.8281 6.0733V15.6478C18.8281 16.0126 18.5332 16.317 18.1589 16.317V16.317Z" fill="#AFAFAF"/>
</g>
<defs>
<clipPath id="clip0_10323_13074">
<rect width="20" height="20" fill="white"/>
</clipPath>
</defs>
</svg>
