<svg width="30" height="21" viewBox="0 0 30 21" fill="none" xmlns="http://www.w3.org/2000/svg">
	<path
		d="M14.9788 1.39832C10.1076 1.39832 5.11068 4.21769 1.17693 9.85644C1.06465 10.0192 1.00312 10.2115 1.00012 10.4092C0.997112 10.6069 1.05277 10.801 1.16006 10.9671C4.18256 15.6983 9.11256 19.3983 14.9788 19.3983C20.7813 19.3983 25.8126 15.6871 28.8407 10.9452C28.9455 10.7824 29.0012 10.5929 29.0012 10.3993C29.0012 10.2056 28.9455 10.0161 28.8407 9.85332C25.8057 5.16582 20.7376 1.39832 14.9788 1.39832Z"
		stroke="#AFAFAF" stroke-width="2" stroke-linecap="round" stroke-linejoin="round" />
	<path
		d="M15.0001 15.3983C17.7615 15.3983 20.0001 13.1597 20.0001 10.3983C20.0001 7.63689 17.7615 5.39832 15.0001 5.39832C12.2387 5.39832 10.0001 7.63689 10.0001 10.3983C10.0001 13.1597 12.2387 15.3983 15.0001 15.3983Z"
		stroke="#AFAFAF" stroke-width="2" stroke-miterlimit="10" />
</svg>