<svg width="512" height="512" viewBox="0 0 512 512" fill="none" xmlns="http://www.w3.org/2000/svg">
<path d="M255.999 361.701C239.16 361.701 222.996 364.639 207.983 370.016C171.619 383.039 141.084 410.83 125.038 447.63C117.436 465.066 113.203 484.295 113.203 504.499H256V361.701H255.999Z" fill="#FFCBBE"/>
<path d="M386.962 447.629C371.518 412.211 341.782 383.537 304 370.011C288.931 364.615 272.712 361.702 256.001 361.701V504.5H398.798C398.797 484.295 394.565 465.065 386.962 447.629Z" fill="#FFDDCF"/>
<path d="M303.999 370.011C288.929 364.615 272.71 361.701 255.998 361.701C239.159 361.701 222.995 364.639 207.982 370.016C171.618 383.039 141.083 410.83 125.037 447.63C139.205 460.084 155.636 472.004 172.599 482.105V504.5H339.382V482.115C356.351 472.012 372.789 460.089 386.962 447.629C371.518 412.211 341.782 383.537 303.999 370.011Z" fill="#FF8F71"/>
<path d="M207.997 370.01C175.607 381.613 148.464 404.644 131.616 434.447C129.8 437.639 128.122 440.917 126.567 444.243C126.044 445.363 125.533 446.492 125.037 447.63C139.204 460.084 155.636 472.004 172.599 482.105V504.5H184.601C188.267 482.044 196.361 461.04 207.997 442.442V370.01Z" fill="#FF6F4D"/>
<path d="M255.999 361.701C239.484 361.701 223.289 364.532 207.998 370.01V504.5H304.03V370.022C288.731 364.541 272.518 361.701 255.999 361.701Z" fill="#B9F0FF"/>
<path d="M303.982 370.006C288.697 364.536 272.501 361.701 255.998 361.701C239.483 361.701 223.288 364.532 207.997 370.01V442.441C229.59 407.923 263.41 381.706 303.982 370.006Z" fill="#7CE3FF"/>
<path d="M256.039 344.222L207.997 370.01C216.427 392.119 233.323 409.661 256.039 421.808C278.754 409.662 295.598 392.129 304.029 370.022L256.039 344.222Z" fill="#FFCBBE"/>
<path d="M84.8333 248.223C108.336 248.223 127.388 229.171 127.388 205.668C127.388 182.166 108.336 163.113 84.8333 163.113C61.3308 163.113 42.2783 182.166 42.2783 205.668C42.2783 229.171 61.3308 248.223 84.8333 248.223Z" fill="#FFCBBE"/>
<path d="M427.167 248.223C450.67 248.223 469.722 229.171 469.722 205.668C469.722 182.166 450.67 163.113 427.167 163.113C403.665 163.113 384.612 182.166 384.612 205.668C384.612 229.171 403.665 248.223 427.167 248.223Z" fill="#FFCBBE"/>
<path d="M303.984 370.005C375.159 349.257 427.167 283.54 427.167 205.667C427.167 111.133 350.532 34.498 255.998 34.498C161.467 34.498 84.832 111.133 84.832 205.667C84.832 283.539 136.841 349.257 208.014 370.005C223.24 374.444 239.339 376.833 255.998 376.833C272.658 376.834 288.758 374.444 303.984 370.005Z" fill="#FFDDCF"/>
<path d="M141.573 205.668C141.573 120.8 203.342 50.371 284.369 36.853C275.14 35.313 265.665 34.499 255.998 34.499C161.467 34.499 84.832 111.134 84.832 205.668C84.832 300.199 161.468 376.834 255.998 376.834C265.664 376.834 275.139 376.02 284.369 374.48C203.342 360.961 141.573 290.533 141.573 205.668Z" fill="#FFCBBE"/>
<path d="M157.441 296.764C177.526 296.764 193.807 283.798 193.807 267.804C193.807 251.81 177.526 238.844 157.441 238.844C137.357 238.844 121.075 251.81 121.075 267.804C121.075 283.798 137.357 296.764 157.441 296.764Z" fill="#FFCBBE"/>
<path d="M354.559 296.764C374.644 296.764 390.925 283.798 390.925 267.804C390.925 251.81 374.644 238.844 354.559 238.844C334.475 238.844 318.193 251.81 318.193 267.804C318.193 283.798 334.475 296.764 354.559 296.764Z" fill="#FFCBBE"/>
<path d="M350.106 28.3739L299.34 12.7189C271.449 4.11795 241.355 6.20295 214.916 18.5669L84.7633 79.4319C76.2793 83.3989 75.6443 95.2219 83.6543 100.076L79.7323 101.985C69.4033 107.012 71.7183 122.355 83.0713 124.11L87.1933 124.747L85.9633 126.32C80.1363 133.775 86.9313 144.41 96.1443 142.256L97.0593 142.042C92.0023 154.664 88.4093 168.029 86.4813 181.927H96.9573H97.1703C119.864 181.881 140.57 168.96 150.746 148.676L161.648 126.944L184.02 118.554C230.43 101.15 281.574 101.15 327.983 118.554L334.522 121.823C346.022 127.573 355.351 136.893 361.113 148.387C361.166 148.492 361.218 148.596 361.272 148.701C368.492 162.891 381.983 172.852 397.569 176.1L425.523 181.924L425.537 181.927C449.271 118.573 414.756 48.31 350.106 28.3739Z" fill="#CE857A"/>
<path d="M222.968 56.9141C222.968 35.3561 236.029 15.9471 256 7.82812C241.885 8.87612 227.956 12.4691 214.916 18.5671L84.7633 79.4321C76.2793 83.3991 75.6443 95.2221 83.6543 100.076L79.7323 101.985C69.4033 107.012 71.7183 122.355 83.0713 124.11L87.1933 124.747L85.9633 126.32C80.1363 133.775 86.9313 144.409 96.1443 142.256L97.0593 142.042C92.0023 154.664 88.4093 168.029 86.4813 181.927H96.9573H97.1703C119.864 181.881 140.57 168.96 150.746 148.676L161.648 126.944L184.02 118.554C206.865 109.987 230.856 105.647 254.866 105.514C235.538 97.1291 222.968 78.0591 222.968 56.9141Z" fill="#C77464"/>
<path d="M321.586 456.08C325.728 456.08 329.086 452.722 329.086 448.58C329.086 444.438 325.728 441.08 321.586 441.08C317.444 441.08 314.086 444.438 314.086 448.58C314.086 452.722 317.444 456.08 321.586 456.08Z" fill="black"/>
<path d="M321.586 494.309C325.728 494.309 329.086 490.951 329.086 486.809C329.086 482.666 325.728 479.309 321.586 479.309C317.444 479.309 314.086 482.666 314.086 486.809C314.086 490.951 317.444 494.309 321.586 494.309Z" fill="black"/>
<path d="M171.136 225.417V239.57C171.136 243.712 174.494 247.07 178.636 247.07C182.778 247.07 186.136 243.712 186.136 239.57V225.417C186.136 221.275 182.778 217.917 178.636 217.917C174.494 217.917 171.136 221.274 171.136 225.417Z" fill="black"/>
<path d="M270.743 234.556C267.022 238.826 261.648 241.275 256 241.275C250.352 241.275 244.979 238.826 241.257 234.556C238.535 231.433 233.798 231.108 230.675 233.829C227.552 236.551 227.227 241.288 229.948 244.411C236.519 251.952 246.014 256.276 255.999 256.276C265.984 256.276 275.479 251.952 282.05 244.411C284.771 241.288 284.446 236.551 281.323 233.829C278.203 231.108 273.464 231.433 270.743 234.556Z" fill="black"/>
<path d="M336.097 215.273C322.918 215.273 312.196 225.995 312.196 239.174C312.196 243.316 315.554 246.674 319.696 246.674C323.838 246.674 327.196 243.316 327.196 239.174C327.196 234.266 331.189 230.273 336.097 230.273C341.005 230.273 344.998 234.266 344.998 239.174C344.998 243.316 348.355 246.674 352.498 246.674C356.641 246.674 359.998 243.316 359.998 239.174C359.998 225.996 349.276 215.273 336.097 215.273Z" fill="black"/>
<path d="M391.654 297.271C389.332 300.701 390.231 305.364 393.661 307.686C397.101 310.012 401.76 309.102 404.076 305.678C414.502 290.273 422.378 273.489 427.55 255.713C454.974 255.506 477.222 233.14 477.222 205.668C477.222 182.514 461.42 162.692 439.434 157.154C443.135 129.508 437.44 101.336 423.094 77.045C407.256 50.229 382.119 30.398 352.315 21.207L301.55 5.552C289.518 1.841 277.131 0 264.779 0C246.364 0 228.518 3.927 211.739 11.772L81.5853 72.638C71.9523 77.143 67.9133 88.507 72.2203 97.998C61.7253 106.949 64.1783 124.081 76.4893 129.873C75.2863 137.703 79.6833 145.388 86.6773 148.528C86.2963 149.658 85.2593 152.864 84.4503 155.643C56.7783 155.866 34.7773 178.322 34.7773 205.667C34.7773 233.195 56.9733 255.476 84.4443 255.7C99.8703 308.79 138.48 350.444 187.538 370.754C171.849 378.828 157.55 389.662 145.526 402.702C142.718 405.747 142.911 410.492 145.956 413.3C149.001 416.107 153.746 415.915 156.554 412.87C168.929 399.449 183.966 388.609 200.496 381.129V497H180.1C180.1 486.587 180.1 478.738 180.1 468.028C180.1 458.28 165.1 457.689 165.1 468.578C154.241 461.479 143.77 453.707 134.212 445.635C135.868 442.224 137.671 438.873 139.599 435.625C141.713 432.063 140.54 427.461 136.978 425.347C133.415 423.233 128.814 424.406 126.7 427.968C113.437 450.312 105.702 476.395 105.702 504.499C105.702 508.641 109.06 511.999 113.202 511.999H398.796C402.939 511.999 406.296 508.641 406.296 504.499C406.296 447.432 374.033 396.215 324.554 370.773C346.757 361.554 367.065 347.794 384.362 329.94C387.244 326.965 387.169 322.217 384.194 319.335C381.216 316.452 376.469 316.53 373.589 319.503C343.237 350.834 301.697 369.333 255.999 369.333C181.009 369.333 115.77 318.635 97.3513 246.044C92.7513 227.913 91.2323 208.862 93.1533 189.426H97.1843C122.813 189.374 145.905 175.048 157.448 152.037L167.032 132.932L186.652 125.575C231.249 108.85 280.361 108.807 324.983 125.438C331.822 128.857 345.793 134.564 354.409 151.752L354.585 152.101C362.798 168.24 377.906 179.663 396.036 183.441L418.723 188.168C422.741 225.897 413.841 264.487 391.654 297.271ZM128.199 460.118C139.657 469.495 152.199 478.425 165.1 486.336V497H120.907C121.597 484.359 124.044 472.013 128.199 460.118ZM215.497 398.092C224.959 410.086 237.424 420.359 252.503 428.421C254.713 429.603 257.366 429.603 259.576 428.421C274.628 420.373 287.075 410.109 296.529 398.116V497H215.497V398.092ZM331.882 497H311.529V381.141C340.962 394.457 364.266 417.792 377.787 445.634C368.223 453.712 357.747 461.487 346.882 468.589C346.882 457.725 331.882 458.239 331.882 468.028V497ZM346.882 497V486.345C359.789 478.431 372.336 469.498 383.8 460.116C387.956 472.011 390.403 484.358 391.092 497H346.882ZM290.198 381.082C282.301 393.802 270.727 404.727 256.039 413.227C241.319 404.711 229.726 393.78 221.825 381.06C243.742 385.305 267.044 385.535 290.198 381.082ZM462.223 205.667C462.223 223.613 448.666 238.443 431.258 240.476C433.511 229.069 434.667 217.427 434.667 205.739C434.667 198.099 434.152 190.392 433.179 182.79C434.457 179.219 435.574 175.581 436.526 171.9C451.353 176.043 462.223 189.807 462.223 205.667ZM49.7773 205.667C49.7773 187.837 63.2363 172.827 80.7403 170.847C76.1963 193.946 76.1973 217.466 80.7453 240.486C63.2413 238.51 49.7773 223.504 49.7773 205.667ZM144.041 145.313C135.387 162.563 118.378 174.427 95.3403 174.427C96.9813 165.927 99.2723 157.49 102.534 148.698C112.322 147.084 129.58 144.659 146.775 139.861L144.041 145.313ZM367.816 145.026C361.371 132.169 350.738 121.547 337.874 115.114C337.291 114.823 331.2 111.75 330.615 111.531C282.497 93.488 229.501 93.487 181.385 111.531L159.012 119.921C158.973 119.936 158.937 119.955 158.899 119.97C158.864 119.984 158.827 119.993 158.792 120.008C136.201 129.302 107.618 132.389 95.6493 134.676C94.5363 134.889 92.8893 135.669 91.7323 133.854C90.5963 132.079 91.8343 130.986 93.1003 129.367C96.6233 124.861 93.9923 118.21 88.3383 117.336L84.2153 116.698C80.1093 116.063 79.2713 110.551 83.0123 108.729C86.5513 107.007 90.9033 105.657 91.1453 100.421C91.2713 97.678 89.8883 95.085 87.5403 93.662C84.6533 91.913 84.8773 87.658 87.9393 86.226L218.093 25.36C242.898 13.761 270.967 11.817 297.131 19.885L347.896 35.54C406.288 53.546 438.647 114.998 420.584 173.234L399.097 168.757C385.616 165.949 374.078 157.507 367.816 145.026Z" fill="black"/>
</svg>
