<svg width="30" height="30" viewBox="0 0 30 30" fill="none" xmlns="http://www.w3.org/2000/svg">
	<g clip-path="url(#clip0_3096_246)">
		<path
			d="M3.42704 7.61389C2.46643 7.61389 1.68717 8.39291 1.68717 9.35389V12.8556C0.72001 13.0932 0 13.9595 0 14.9998C0 16.0404 0.719948 16.9066 1.68717 17.1442V20.6455C1.68717 21.6066 2.46643 22.3854 3.42704 22.3854C4.38759 22.3854 5.16698 21.6066 5.16698 20.6455V9.35389C5.16698 8.39297 4.38759 7.61389 3.42704 7.61389Z"
			fill="black" />
		<path
			d="M20.6678 4.03333C19.241 4.03333 18.0844 5.18993 18.0844 6.61678V12.4164H17.2935H13.5501H12.3375L11.9157 12.4063V6.61678C11.9157 5.18999 10.759 4.03333 9.33215 4.03333C7.90541 4.03333 6.74869 5.18993 6.74869 6.61678V23.3831C6.74869 24.81 7.90541 25.9666 9.33215 25.9666C10.7591 25.9666 11.9157 24.81 11.9157 23.3831V17.5965C11.9157 17.5965 12.1938 17.5835 12.3375 17.5835H13.5501H17.2935H18.0844V23.3831C18.0844 24.81 19.241 25.9666 20.6678 25.9666C22.0947 25.9666 23.2513 24.81 23.2513 23.3831V6.61672C23.2513 5.18999 22.0947 4.03333 20.6678 4.03333Z"
			fill="black" />
		<path
			d="M28.3128 12.8556V9.35389C28.3128 8.39297 27.5335 7.61389 26.573 7.61389C25.6124 7.61389 24.8331 8.39291 24.8331 9.35389V20.6455C24.8331 21.6066 25.6124 22.3854 26.573 22.3854C27.5335 22.3854 28.3128 21.6066 28.3128 20.6455V17.1442C29.2801 16.9066 30.0001 16.0404 30.0001 14.9998C30 13.9594 29.2801 13.0932 28.3128 12.8556Z"
			fill="black" />
	</g>
	<defs>
		<clipPath id="clip0_3096_246">
			<rect width="30" height="30" fill="white" />
		</clipPath>
	</defs>
</svg>