<svg width="20" height="20" viewBox="0 0 20 20" fill="none" xmlns="http://www.w3.org/2000/svg">
	<mask id="mask0_3100_333" style="mask-type:luminance" maskUnits="userSpaceOnUse" x="0" y="0" width="20" height="20">
		<path d="M20 0H0V20H20V0Z" fill="white" />
	</mask>
	<g mask="url(#mask0_3100_333)">
		<path
			d="M2.28467 5.07605C1.64427 5.07605 1.1248 5.59539 1.1248 6.23605V8.57072C0.479999 8.72872 0 9.30605 0 10.0001C0 10.6934 0.479932 11.2714 1.1248 11.4294V13.7634C1.1248 14.4047 1.64427 14.9234 2.28467 14.9234C2.92507 14.9234 3.44467 14.4047 3.44467 13.7634V6.23605C3.44467 5.59539 2.92507 5.07605 2.28467 5.07605Z"
			fill="#EBEBEB" />
		<path
			d="M13.7785 2.68872C12.8273 2.68872 12.0563 3.46005 12.0563 4.41139V8.27738H11.529H9.03341H8.22501L7.94381 8.27072V4.41139C7.94381 3.46005 7.17268 2.68872 6.22141 2.68872C5.27028 2.68872 4.49915 3.46005 4.49915 4.41139V15.5887C4.49915 16.54 5.27028 17.3114 6.22141 17.3114C7.17274 17.3114 7.94381 16.54 7.94381 15.5887V11.7314C7.94381 11.7314 8.12921 11.7227 8.22501 11.7227H9.03341H11.529H12.0563V15.5887C12.0563 16.54 12.8273 17.3114 13.7785 17.3114C14.7298 17.3114 15.5009 16.54 15.5009 15.5887V4.41139C15.5009 3.46005 14.7298 2.68872 13.7785 2.68872Z"
			fill="#EBEBEB" />
		<path
			d="M18.8752 8.57072V6.23605C18.8752 5.59539 18.3557 5.07605 17.7154 5.07605C17.075 5.07605 16.5554 5.59539 16.5554 6.23605V13.7634C16.5554 14.4047 17.075 14.9234 17.7154 14.9234C18.3557 14.9234 18.8752 14.4047 18.8752 13.7634V11.4294C19.5201 11.2714 20.0001 10.6934 20.0001 10.0001C20 9.30605 19.5201 8.72872 18.8752 8.57072Z"
			fill="#EBEBEB" />
	</g>
</svg>