<svg width="328" height="320" viewBox="0 0 328 320" fill="none" xmlns="http://www.w3.org/2000/svg">
	<path d="M328 244.736H0V244.896H328V244.736Z" fill="#EBEBEB" />
	<path d="M295.134 255.034H280.912V255.194H295.134V255.034Z" fill="#EBEBEB" />
	<path d="M226.103 251.718H203.727V251.878H226.103V251.718Z" fill="#EBEBEB" />
	<path d="M289.375 249.094H260.163V249.254H289.375V249.094Z" fill="#EBEBEB" />
	<path d="M113.501 252.32H106.193V252.48H113.501V252.32Z" fill="#EBEBEB" />
	<path d="M100.348 252.32H75.1644V252.48H100.348V252.32Z" fill="#EBEBEB" />
	<path d="M61.6706 249.619H43.4994V249.779H61.6706V249.619Z" fill="#EBEBEB" />
	<path
		d="M155.472 216.192H28.805C27.8127 216.19 26.8616 215.805 26.1606 215.119C25.4595 214.434 25.0658 213.506 25.0658 212.538V38.8224C25.0744 37.8599 25.472 36.9395 26.1721 36.2613C26.8722 35.583 27.8184 35.2017 28.805 35.2H155.472C156.465 35.2 157.418 35.585 158.121 36.2704C158.823 36.9557 159.218 37.8852 159.218 38.8544V212.538C159.218 213.507 158.823 214.436 158.121 215.122C157.418 215.807 156.465 216.192 155.472 216.192ZM28.805 35.328C27.8562 35.3297 26.9468 35.6986 26.2765 36.3538C25.6063 37.0089 25.2298 37.8967 25.2298 38.8224V212.538C25.2298 213.463 25.6063 214.351 26.2765 215.006C26.9468 215.661 27.8562 216.03 28.805 216.032H155.472C156.421 216.03 157.331 215.662 158.003 215.007C158.674 214.352 159.052 213.464 159.054 212.538V38.8224C159.052 37.8962 158.674 37.0083 158.003 36.3534C157.331 35.6984 156.421 35.3297 155.472 35.328H28.805Z"
		fill="#EBEBEB" />
	<path
		d="M297.371 216.192H170.698C169.705 216.19 168.753 215.805 168.051 215.12C167.349 214.435 166.954 213.506 166.952 212.538V38.8224C166.962 37.8593 167.361 36.9389 168.063 36.2609C168.764 35.5828 169.711 35.2016 170.698 35.2H297.371C298.357 35.2033 299.301 35.5855 300 36.2635C300.699 36.9416 301.095 37.861 301.104 38.8224V212.538C301.104 213.505 300.711 214.432 300.012 215.117C299.312 215.802 298.363 216.189 297.371 216.192ZM170.698 35.328C169.748 35.3297 168.838 35.6984 168.167 36.3534C167.496 37.0083 167.118 37.8962 167.116 38.8224V212.538C167.118 213.464 167.496 214.352 168.167 215.007C168.838 215.662 169.748 216.03 170.698 216.032H297.371C298.321 216.03 299.231 215.662 299.902 215.007C300.573 214.352 300.951 213.464 300.953 212.538V38.8224C300.951 37.8962 300.573 37.0083 299.902 36.3534C299.231 35.6984 298.321 35.3297 297.371 35.328H170.698Z"
		fill="#EBEBEB" />
	<path
		d="M75.4399 111.763C79.0779 111.763 82.5669 110.353 85.1393 107.844C87.7117 105.334 89.1569 101.93 89.1569 98.3808C89.1569 94.8316 87.7117 91.4277 85.1393 88.918C82.5669 86.4083 79.0779 84.9984 75.4399 84.9984H73.754V111.763H75.4399Z"
		fill="#E0E0E0" />
	<path
		d="M73.741 111.763C81.3167 111.763 87.458 105.772 87.458 98.3808C87.458 90.9899 81.3167 84.9984 73.741 84.9984C66.1653 84.9984 60.024 90.9899 60.024 98.3808C60.024 105.772 66.1653 111.763 73.741 111.763Z"
		fill="#F5F5F5" />
	<path
		d="M73.1112 100.058C68.2397 100.058 63.5677 98.1696 60.123 94.809C56.6784 91.4483 54.7432 86.8903 54.7432 82.1376V71.4432C54.7432 70.9968 54.9249 70.5687 55.2485 70.253C55.572 69.9373 56.0109 69.76 56.4684 69.76C56.926 69.76 57.3648 69.9373 57.6884 70.253C58.012 70.5687 58.1937 70.9968 58.1937 71.4432V82.144C58.1972 86.0017 59.7691 89.7005 62.5645 92.429C65.3599 95.1574 69.1505 96.6925 73.1046 96.6976C73.3397 96.6834 73.5752 96.7164 73.7968 96.7944C74.0183 96.8724 74.2211 96.9939 74.3927 97.1513C74.5643 97.3087 74.701 97.4987 74.7945 97.7096C74.888 97.9205 74.9362 98.1478 74.9362 98.3776C74.9362 98.6074 74.888 98.8347 74.7945 99.0456C74.701 99.2566 74.5643 99.4466 74.3927 99.6039C74.2211 99.7613 74.0183 99.8828 73.7968 99.9608C73.5752 100.039 73.3397 100.072 73.1046 100.058H73.1112Z"
		fill="#E0E0E0" />
	<path
		d="M41.2164 80.864H71.7336C72.2216 80.8641 72.7032 80.7548 73.1411 80.5447C73.5791 80.3346 73.9617 80.0292 74.2596 79.652C74.5575 79.2748 74.7626 78.8359 74.8592 78.3692C74.9558 77.9025 74.9413 77.4204 74.8168 76.96L72.16 67.2C71.9806 66.5369 71.5817 65.9503 71.0253 65.5313C70.4689 65.1123 69.7862 64.8845 69.0833 64.8832H43.8667C43.163 64.8841 42.4793 65.1118 41.9218 65.5307C41.3642 65.9496 40.9641 66.5364 40.7835 67.2L38.1595 76.9472C38.0318 77.4064 38.014 77.8881 38.1075 78.3551C38.201 78.8221 38.4033 79.2619 38.6987 79.6404C38.9942 80.019 39.3749 80.3262 39.8115 80.5384C40.248 80.7505 40.7287 80.8619 41.2164 80.864Z"
		fill="#F5F5F5" />
	<path
		d="M269.144 111.763C272.782 111.763 276.271 110.353 278.843 107.844C281.415 105.334 282.861 101.93 282.861 98.3808C282.861 94.8316 281.415 91.4277 278.843 88.918C276.271 86.4083 272.782 84.9984 269.144 84.9984H267.458V111.763H269.144Z"
		fill="#E0E0E0" />
	<path
		d="M267.458 111.763C275.033 111.763 281.175 105.772 281.175 98.3808C281.175 90.9899 275.033 84.9984 267.458 84.9984C259.882 84.9984 253.741 90.9899 253.741 98.3808C253.741 105.772 259.882 111.763 267.458 111.763Z"
		fill="#F5F5F5" />
	<path
		d="M266.828 100.058C261.956 100.058 257.284 98.1696 253.84 94.809C250.395 91.4483 248.46 86.8903 248.46 82.1376V71.4432C248.46 70.9968 248.642 70.5687 248.965 70.253C249.289 69.9373 249.728 69.76 250.185 69.76C250.643 69.76 251.082 69.9373 251.405 70.253C251.729 70.5687 251.911 70.9968 251.911 71.4432V82.144C251.914 86.0017 253.486 89.7005 256.281 92.429C259.077 95.1574 262.867 96.6925 266.821 96.6976C267.056 96.6834 267.292 96.7164 267.514 96.7944C267.735 96.8724 267.938 96.9939 268.109 97.1513C268.281 97.3087 268.418 97.4987 268.511 97.7096C268.605 97.9205 268.653 98.1478 268.653 98.3776C268.653 98.6074 268.605 98.8347 268.511 99.0456C268.418 99.2566 268.281 99.4466 268.109 99.6039C267.938 99.7613 267.735 99.8828 267.514 99.9608C267.292 100.039 267.056 100.072 266.821 100.058H266.828Z"
		fill="#E0E0E0" />
	<path
		d="M234.933 80.864H265.45C265.938 80.8641 266.42 80.7548 266.858 80.5447C267.296 80.3346 267.679 80.0292 267.976 79.652C268.274 79.2748 268.479 78.836 268.576 78.3692C268.673 77.9025 268.658 77.4204 268.534 76.96L265.91 67.2128C265.73 66.5498 265.331 65.9631 264.775 65.5441C264.219 65.1251 263.536 64.8973 262.833 64.896H237.584C236.88 64.897 236.196 65.1246 235.639 65.5435C235.081 65.9624 234.681 66.5492 234.5 67.2128L231.876 76.96C231.751 77.4184 231.735 77.8987 231.83 78.364C231.924 78.8294 232.127 79.2674 232.422 79.6444C232.717 80.0214 233.097 80.3273 233.532 80.5387C233.968 80.7502 234.447 80.8614 234.933 80.864Z"
		fill="#F5F5F5" />
	<path d="M87.8909 202.15H97.8687V164.435H87.8909V202.15Z" fill="#E6E6E6" />
	<path d="M60.844 202.144H93.9523L98.951 158.003H65.8427L60.844 202.144Z" fill="#F0F0F0" />
	<path d="M57.2557 202.144H91.4596L96.4583 158.003H62.261L57.2557 202.144Z" fill="#F5F5F5" />
	<path d="M88.9864 198.669L93.1979 161.485H64.7275L60.516 198.669H88.9864Z" fill="white" />
	<path
		d="M83.1086 189.651L83.3119 188.16C84.3681 178.829 78.3985 170.515 70.6446 170.515L70.4675 172.032C69.4113 181.357 75.3809 189.67 83.1414 189.67L83.1086 189.651Z"
		fill="#F5F5F5" />
	<path d="M38.7631 244.736H68.1781V202.144H38.7631L38.7631 244.736Z" fill="#E6E6E6" />
	<path d="M41.715 244.736H38.7565V236.525H44.8179L41.715 244.736Z" fill="#F0F0F0" />
	<path d="M121.203 244.736H150.618V202.144H121.203V244.736Z" fill="#E6E6E6" />
	<path d="M38.7565 239.699H123.781V202.15H38.7565V239.699Z" fill="#F0F0F0" />
	<path d="M120.822 244.736H123.781V236.525H117.719L120.822 244.736Z" fill="#F0F0F0" />
	<path d="M41.0525 219.648H121.485V204.493H41.0525V219.648Z" fill="#E6E6E6" />
	<path
		d="M75.9057 214.4H86.6313C88.9374 214.401 91.2194 213.943 93.3377 213.054C95.456 212.164 97.3661 210.863 98.951 209.229H63.5861C65.1717 210.862 67.0819 212.163 69.2001 213.052C71.3182 213.941 73.5999 214.4 75.9057 214.4Z"
		fill="#F0F0F0" />
	<path d="M41.0525 237.248H121.485V222.093H41.0525V237.248Z" fill="#E6E6E6" />
	<path
		d="M75.9057 231.974H86.6313C88.9374 231.975 91.2194 231.517 93.3377 230.628C95.456 229.739 97.3661 228.437 98.951 226.803H63.5861C65.1717 228.437 67.0819 229.737 69.2001 230.626C71.3182 231.516 73.5999 231.974 75.9057 231.974Z"
		fill="#F0F0F0" />
	<path
		d="M118.395 200.41H119.156C119.156 198.88 119.156 195.008 119.235 186.131C119.372 170.035 119.635 169.056 119.635 169.056L117.824 176.486C116.676 184.71 118.159 192.979 118.395 200.41Z"
		fill="#E6E6E6" />
	<path
		d="M116.893 175.36C114.269 172.333 108.725 171.45 103.031 170.694C100.794 170.4 108.903 175.386 112.871 178.925C115.955 181.677 117.923 182.438 118.775 185.178C119.208 181.76 119.136 177.99 116.893 175.36Z"
		fill="#E6E6E6" />
	<path
		d="M120.35 180.787C122.974 177.76 128.517 176.883 134.211 176.128C136.448 175.834 128.307 180.819 124.371 184.358C121.288 187.11 119.32 187.872 118.467 190.611C118.034 187.194 118.08 183.398 120.35 180.787Z"
		fill="#E6E6E6" />
	<path
		d="M119.235 168.32C121.203 164.698 126.096 161.28 131.613 160C133.778 159.494 126.595 166.682 123.866 171.322C121.747 174.918 118.939 179.155 118.5 182.202C117.844 176.198 117.28 171.962 119.235 168.32Z"
		fill="#E6E6E6" />
	<path
		d="M118.998 202.144C116.676 202.144 114.754 201.011 114.616 199.552L114.229 197.069H123.774L123.38 199.552C123.249 201.011 121.36 202.144 118.998 202.144Z"
		fill="#F0F0F0" />
	<path d="M124.391 198.022H113.613L113.304 195.251H124.699L124.391 198.022Z" fill="#F0F0F0" />
	<path d="M111.218 145.101H216.316V51.5776L111.218 51.5776L111.218 145.101Z" fill="#E6E6E6" />
	<path d="M108.857 145.101H215.286V51.5776L108.857 51.5776L108.857 145.101Z" fill="#F5F5F5" />
	<path d="M211.035 140.915V55.7696L113.094 55.7696V140.915H211.035Z" fill="#FAFAFA" />
	<path d="M199.024 140.915L160.477 55.7696H147.384L185.93 140.915H199.024Z" fill="white" />
	<path d="M182.217 140.915L143.671 55.7696H134.657L173.204 140.915H182.217Z" fill="white" />
	<path d="M149.463 140.909V55.7632H144.399V140.909H149.463Z" fill="#E6E6E6" />
	<path d="M183.129 140.909V55.7632H178.065V140.909H183.129Z" fill="#E6E6E6" />
	<path d="M148.551 143.571V52.6528H142.149V143.571H148.551Z" fill="#F5F5F5" />
	<path d="M182.217 143.571V52.6528H175.815V143.571H182.217Z" fill="#F5F5F5" />
	<path d="M113.554 140.915V55.7696H113.101V140.915H113.554Z" fill="#E6E6E6" />
	<path
		d="M107.072 46.1888H220.928C221.073 46.1904 221.212 46.2476 221.315 46.3481C221.418 46.4485 221.477 46.5843 221.479 46.7264C221.477 46.8679 221.418 47.003 221.315 47.1024C221.212 47.2018 221.073 47.2576 220.928 47.2576H107.072C106.927 47.2576 106.788 47.2018 106.685 47.1024C106.582 47.003 106.523 46.8679 106.521 46.7264C106.523 46.5843 106.582 46.4485 106.685 46.3481C106.787 46.2476 106.927 46.1904 107.072 46.1888Z"
		fill="#E6E6E6" />
	<path
		d="M216.316 49.7152C216.511 49.7135 216.698 49.6366 216.836 49.5012C216.974 49.3657 217.051 49.1827 217.051 48.992V47.4432C217.052 47.3486 217.033 47.2547 216.997 47.167C216.96 47.0793 216.906 46.9995 216.838 46.9322C216.77 46.865 216.688 46.8116 216.599 46.7752C216.509 46.7388 216.413 46.72 216.316 46.72C216.121 46.72 215.933 46.7953 215.794 46.9296C215.655 47.0638 215.576 47.2461 215.575 47.4368V48.9856C215.575 49.178 215.653 49.3626 215.791 49.4993C215.93 49.6359 216.119 49.7135 216.316 49.7152Z"
		fill="#E6E6E6" />
	<path
		d="M115.325 49.7152C115.521 49.7136 115.708 49.6368 115.847 49.5016C115.986 49.3663 116.064 49.1833 116.066 48.992V47.4432C116.066 47.2514 115.988 47.0675 115.849 46.9319C115.71 46.7962 115.521 46.72 115.325 46.72C115.13 46.72 114.943 46.7956 114.805 46.93C114.668 47.0644 114.59 47.2467 114.59 47.4368V48.9856C114.589 49.0806 114.608 49.1748 114.644 49.2629C114.68 49.3509 114.734 49.4311 114.803 49.4989C114.871 49.5666 114.952 49.6206 115.042 49.6577C115.131 49.6949 115.227 49.7144 115.325 49.7152Z"
		fill="#E6E6E6" />
	<path opacity="0.6" d="M107.243 119.962L213.6 119.962V46.72L107.243 46.72L107.243 119.962Z" fill="#E0E0E0" />
	<path
		d="M223.23 166.381H204.889C202.939 166.381 201.359 167.922 201.359 169.824V178.106C201.359 180.007 202.939 181.549 204.889 181.549H223.23C225.179 181.549 226.76 180.007 226.76 178.106V169.824C226.76 167.922 225.179 166.381 223.23 166.381Z"
		fill="#FAFAFA" />
	<path
		d="M225.572 163.578H202.547C201.891 163.578 201.359 164.096 201.359 164.736V165.67C201.359 166.31 201.891 166.829 202.547 166.829H225.572C226.228 166.829 226.76 166.31 226.76 165.67V164.736C226.76 164.096 226.228 163.578 225.572 163.578Z"
		fill="#E6E6E6" />
	<path
		d="M201.733 198.4C201.733 198.4 202.068 209.069 214.807 209.069C227.547 209.069 227.881 198.4 227.881 198.4H201.733Z"
		fill="#F0F0F0" />
	<path
		d="M230.781 198.4C230.781 198.4 231.115 209.069 243.855 209.069C256.594 209.069 256.929 198.4 256.929 198.4H230.781Z"
		fill="#F0F0F0" />
	<path
		d="M250.618 159.514H225.428C222.747 159.514 220.573 161.634 220.573 164.25V176.819C220.573 179.435 222.747 181.555 225.428 181.555H250.618C253.299 181.555 255.473 179.435 255.473 176.819V164.25C255.473 161.634 253.299 159.514 250.618 159.514Z"
		fill="#F0F0F0" />
	<path
		d="M253.846 155.661H222.2C221.302 155.661 220.573 156.371 220.573 157.248V158.541C220.573 159.417 221.302 160.128 222.2 160.128H253.846C254.744 160.128 255.473 159.417 255.473 158.541V157.248C255.473 156.371 254.744 155.661 253.846 155.661Z"
		fill="#F5F5F5" />
	<path d="M192.136 244.736H195.442V191.846H192.136V244.736Z" fill="#E6E6E6" />
	<path d="M287.604 181.549H269.701V191.84H287.604V181.549Z" fill="#E6E6E6" />
	<path d="M180.689 191.846H269.695V181.555H180.689V191.846Z" fill="#F5F5F5" />
	<path d="M287.604 209.037H269.701V219.328H287.604V209.037Z" fill="#E6E6E6" />
	<path d="M180.689 219.328H269.695V209.037H180.689V219.328Z" fill="#F5F5F5" />
	<path d="M281.142 244.736H284.448V191.846H281.142V244.736Z" fill="#E6E6E6" />
	<path d="M266.395 244.736H269.701V191.846H266.395V244.736Z" fill="#F5F5F5" />
	<path d="M180.689 244.736H183.995V191.846H180.689V244.736Z" fill="#F5F5F5" />
	<path
		d="M164 273.638C234.246 273.638 291.192 270.395 291.192 266.394C291.192 262.392 234.246 259.149 164 259.149C93.7538 259.149 36.8081 262.392 36.8081 266.394C36.8081 270.395 93.7538 273.638 164 273.638Z"
		fill="#F5F5F5" />
	<path
		d="M170.829 233.92H87.1431C85.7974 233.901 84.5086 233.387 83.5353 232.48C82.562 231.573 81.9761 230.341 81.8951 229.03L74.3904 87.2384C74.3488 86.6077 74.4412 85.9754 74.6618 85.3812C74.8824 84.7869 75.2264 84.2435 75.6723 83.7851C76.1182 83.3266 76.6564 82.963 77.2531 82.7169C77.8498 82.4709 78.4921 82.3477 79.1399 82.3552H162.826C164.171 82.3722 165.46 82.8851 166.433 83.7909C167.407 84.6967 167.993 85.9283 168.074 87.2384L175.565 229.03C175.607 229.66 175.515 230.292 175.295 230.885C175.075 231.479 174.733 232.022 174.288 232.481C173.844 232.94 173.307 233.304 172.712 233.552C172.117 233.8 171.476 233.925 170.829 233.92Z"
		fill="#407BFF" />
	<path opacity="0.8"
		d="M170.829 233.92H87.1431C85.7974 233.901 84.5086 233.387 83.5353 232.48C82.562 231.573 81.9761 230.341 81.8951 229.03L74.3904 87.2384C74.3488 86.6077 74.4412 85.9754 74.6618 85.3812C74.8824 84.7869 75.2264 84.2435 75.6723 83.7851C76.1182 83.3266 76.6564 82.963 77.2531 82.7169C77.8498 82.4709 78.4921 82.3477 79.1399 82.3552H162.826C164.171 82.3722 165.46 82.8851 166.433 83.7909C167.407 84.6967 167.993 85.9283 168.074 87.2384L175.565 229.03C175.607 229.66 175.515 230.292 175.295 230.885C175.075 231.479 174.733 232.022 174.288 232.481C173.844 232.94 173.307 233.304 172.712 233.552C172.117 233.8 171.476 233.925 170.829 233.92Z"
		fill="white" />
	<path d="M154.567 77.7344H145.311V78.3744H154.567V77.7344Z" fill="#407BFF" />
	<path d="M142.103 77.7344H138.711V78.3744H142.103V77.7344Z" fill="#407BFF" />
	<path
		d="M174.43 224.922H94.3984C93.1096 224.909 91.8734 224.421 90.9386 223.556C90.0038 222.69 89.4399 221.511 89.3603 220.256L82.1968 84.64C82.157 84.0364 82.2454 83.4313 82.4566 82.8626C82.6678 82.2939 82.9971 81.774 83.4239 81.3353C83.8508 80.8967 84.3659 80.5488 84.937 80.3135C85.5081 80.0782 86.1229 79.9606 86.7429 79.968H166.775C168.064 79.9819 169.299 80.4715 170.233 81.3384C171.166 82.2052 171.729 83.3849 171.806 84.64L178.97 220.256C179.01 220.859 178.921 221.463 178.711 222.031C178.5 222.599 178.171 223.118 177.745 223.556C177.318 223.994 176.804 224.342 176.234 224.577C175.663 224.812 175.049 224.929 174.43 224.922Z"
		fill="#407BFF" />
	<path
		d="M174.43 221.805H94.3985C93.9291 221.789 93.4821 221.606 93.1422 221.289C92.8024 220.973 92.5934 220.546 92.5551 220.09L85.385 84.48C85.3688 84.2996 85.392 84.1179 85.453 83.9469C85.5141 83.7759 85.6117 83.6195 85.7393 83.488C85.8672 83.3568 86.0223 83.2536 86.1942 83.1852C86.3661 83.1168 86.5509 83.0848 86.7364 83.0912H166.768C167.237 83.1085 167.682 83.2925 168.021 83.6086C168.359 83.9247 168.567 84.3508 168.605 84.8064L175.808 220.416C175.824 220.596 175.801 220.777 175.74 220.947C175.679 221.117 175.582 221.273 175.455 221.404C175.328 221.535 175.174 221.639 175.003 221.708C174.832 221.777 174.648 221.81 174.463 221.805H174.43ZM86.7364 83.2512C86.5733 83.2461 86.4109 83.2741 86.2595 83.3336C86.1082 83.3931 85.9712 83.4828 85.8574 83.5968C85.7478 83.715 85.664 83.8536 85.611 84.0044C85.558 84.1551 85.537 84.3147 85.549 84.4736L92.7126 220.083C92.7491 220.499 92.9399 220.887 93.2492 221.174C93.5585 221.462 93.9649 221.629 94.3919 221.645H174.424C174.586 221.651 174.748 221.623 174.898 221.564C175.049 221.504 175.185 221.414 175.296 221.299C175.409 221.183 175.494 221.044 175.547 220.893C175.6 220.742 175.62 220.582 175.605 220.422L168.448 84.8128C168.413 84.398 168.223 84.0101 167.915 83.7224C167.607 83.4346 167.201 83.267 166.775 83.2512H86.7364Z"
		fill="white" />
	<path opacity="0.3"
		d="M146.437 132.516C155.54 123.403 154.947 108.436 145.113 99.0862C135.279 89.7368 119.928 89.5453 110.825 98.6584C101.722 107.772 102.315 122.738 112.149 132.088C121.983 141.437 137.334 141.629 146.437 132.516Z"
		fill="white" />
	<path
		d="M148.256 115.59C148.44 118.735 147.791 121.874 146.373 124.704C144.838 127.74 142.456 130.29 139.5 132.062C136.543 133.835 133.134 134.756 129.665 134.72C126.07 134.688 122.544 133.749 119.431 131.994C116.318 130.239 113.724 127.727 111.901 124.704C110.201 121.939 109.224 118.81 109.054 115.59C108.892 113.121 109.254 110.646 110.118 108.32C110.982 105.994 112.328 103.867 114.073 102.072C115.818 100.277 117.924 98.8529 120.26 97.8884C122.595 96.924 125.109 96.4401 127.645 96.4672C132.922 96.5209 137.983 98.5236 141.807 102.072C145.632 105.62 147.936 110.451 148.256 115.59Z"
		fill="white" />
	<path
		d="M146.354 124.704C144.819 127.74 142.436 130.29 139.48 132.062C136.524 133.834 133.115 134.756 129.645 134.72C126.05 134.688 122.524 133.749 119.411 131.994C116.298 130.239 113.704 127.727 111.881 124.704C116.866 121.345 122.787 119.558 128.845 119.584C135.065 119.607 141.146 121.385 146.354 124.704Z"
		fill="#407BFF" />
	<path
		d="M134.708 115.146C137.987 111.862 137.773 106.469 134.228 103.099C130.684 99.7296 125.152 99.6595 121.873 102.943C118.593 106.226 118.808 111.619 122.352 114.989C125.896 118.359 131.428 118.429 134.708 115.146Z"
		fill="#407BFF" />
	<path
		d="M162.957 172.16H100.289C99.7436 172.154 99.2201 171.947 98.8245 171.58C98.4289 171.214 98.1905 170.714 98.1574 170.182L97.6851 161.222C97.6688 160.968 97.7066 160.712 97.7962 160.472C97.8857 160.232 98.025 160.013 98.2055 159.828C98.3859 159.643 98.6035 159.496 98.8447 159.397C99.0858 159.298 99.3454 159.248 99.6071 159.251H162.275C162.82 159.257 163.342 159.463 163.738 159.828C164.133 160.194 164.372 160.692 164.407 161.222L164.879 170.182C164.896 170.438 164.859 170.694 164.77 170.935C164.681 171.175 164.542 171.395 164.361 171.581C164.181 171.767 163.963 171.914 163.721 172.014C163.48 172.113 163.219 172.163 162.957 172.16Z"
		fill="white" />
	<path opacity="0.3"
		d="M143.769 154.304H117.595C117.047 154.3 116.521 154.093 116.123 153.724C115.726 153.356 115.488 152.854 115.456 152.32L115.358 150.4C115.34 150.145 115.378 149.888 115.467 149.648C115.556 149.407 115.695 149.187 115.875 149.001C116.056 148.815 116.274 148.668 116.516 148.569C116.757 148.469 117.017 148.419 117.28 148.422H143.448C143.993 148.428 144.517 148.635 144.912 149.002C145.308 149.369 145.546 149.868 145.58 150.4L145.684 152.32C145.701 152.575 145.663 152.83 145.574 153.071C145.485 153.311 145.346 153.531 145.167 153.717C144.987 153.902 144.771 154.051 144.53 154.152C144.29 154.253 144.031 154.304 143.769 154.304Z"
		fill="black" />
	<path opacity="0.3"
		d="M153.504 215.238H114.295C113.366 215.227 112.477 214.874 111.804 214.25C111.131 213.625 110.725 212.776 110.667 211.872L110.438 207.456C110.415 207.022 110.482 206.588 110.637 206.18C110.791 205.773 111.029 205.4 111.336 205.085C111.643 204.77 112.012 204.519 112.422 204.348C112.831 204.177 113.272 204.089 113.718 204.09H152.914C153.842 204.101 154.732 204.454 155.405 205.078C156.077 205.703 156.483 206.552 156.541 207.456L156.771 211.872C156.794 212.305 156.727 212.738 156.573 213.145C156.419 213.552 156.183 213.924 155.877 214.238C155.572 214.553 155.204 214.804 154.796 214.976C154.388 215.148 153.948 215.237 153.504 215.238Z"
		fill="black" />
	<path
		d="M164.105 193.83H101.431C100.885 193.823 100.363 193.616 99.9675 193.249C99.5723 192.883 99.3334 192.384 99.2987 191.853L98.8264 182.893C98.8102 182.638 98.848 182.382 98.9375 182.142C99.027 181.901 99.1662 181.682 99.3465 181.496C99.5268 181.311 99.7443 181.163 99.9855 181.063C100.227 180.963 100.486 180.913 100.748 180.915H163.416C163.962 180.921 164.485 181.128 164.881 181.495C165.277 181.862 165.515 182.361 165.548 182.893L166.027 191.853C166.042 192.108 166.004 192.363 165.914 192.603C165.824 192.843 165.685 193.062 165.505 193.247C165.325 193.433 165.108 193.58 164.867 193.68C164.626 193.781 164.367 193.832 164.105 193.83Z"
		fill="white" />
	<path
		d="M108.24 165.702C108.258 165.985 108.216 166.269 108.117 166.535C108.018 166.801 107.863 167.045 107.663 167.25C107.463 167.456 107.222 167.618 106.954 167.729C106.687 167.839 106.399 167.894 106.108 167.891C105.505 167.884 104.926 167.655 104.49 167.248C104.053 166.842 103.789 166.29 103.753 165.702C103.734 165.42 103.775 165.137 103.874 164.87C103.972 164.604 104.126 164.36 104.326 164.155C104.525 163.949 104.766 163.786 105.033 163.676C105.301 163.566 105.588 163.51 105.878 163.514C106.483 163.52 107.062 163.75 107.5 164.156C107.938 164.562 108.202 165.114 108.24 165.702Z"
		fill="#263238" />
	<path
		d="M115.148 165.702C115.167 165.985 115.126 166.268 115.027 166.534C114.929 166.801 114.775 167.044 114.575 167.25C114.376 167.455 114.135 167.618 113.867 167.729C113.6 167.839 113.312 167.894 113.022 167.891C112.418 167.886 111.839 167.657 111.402 167.25C110.965 166.844 110.702 166.291 110.667 165.702C110.648 165.42 110.689 165.137 110.788 164.87C110.886 164.604 111.04 164.36 111.24 164.155C111.439 163.949 111.68 163.786 111.948 163.676C112.215 163.566 112.503 163.51 112.793 163.514C113.397 163.519 113.976 163.748 114.413 164.155C114.85 164.561 115.113 165.114 115.148 165.702Z"
		fill="#263238" />
	<path
		d="M122.016 165.702C122.035 165.985 121.994 166.268 121.895 166.534C121.797 166.801 121.643 167.044 121.443 167.25C121.244 167.455 121.003 167.618 120.736 167.729C120.468 167.839 120.181 167.894 119.891 167.891C119.287 167.884 118.707 167.655 118.27 167.249C117.832 166.843 117.567 166.291 117.529 165.702C117.511 165.42 117.553 165.136 117.652 164.87C117.751 164.603 117.906 164.36 118.106 164.155C118.306 163.949 118.547 163.786 118.815 163.676C119.083 163.566 119.371 163.51 119.661 163.514C120.264 163.521 120.843 163.75 121.28 164.156C121.716 164.562 121.98 165.115 122.016 165.702Z"
		fill="#263238" />
	<path
		d="M128.937 165.702C128.955 165.985 128.913 166.268 128.814 166.533C128.715 166.799 128.561 167.042 128.362 167.248C128.163 167.453 127.922 167.616 127.655 167.727C127.389 167.838 127.101 167.894 126.811 167.891C126.207 167.884 125.628 167.655 125.19 167.249C124.752 166.843 124.488 166.291 124.45 165.702C124.432 165.42 124.473 165.137 124.572 164.871C124.671 164.606 124.825 164.362 125.025 164.157C125.224 163.952 125.464 163.789 125.731 163.678C125.998 163.567 126.285 163.511 126.575 163.514C127.179 163.521 127.758 163.75 128.196 164.156C128.634 164.562 128.899 165.114 128.937 165.702Z"
		fill="#263238" />
	<path
		d="M109.401 187.36C109.42 187.642 109.379 187.926 109.281 188.192C109.182 188.458 109.028 188.702 108.829 188.907C108.629 189.113 108.388 189.276 108.121 189.386C107.854 189.497 107.566 189.552 107.276 189.549C106.672 189.542 106.093 189.312 105.655 188.907C105.217 188.501 104.952 187.948 104.914 187.36C104.896 187.077 104.938 186.794 105.037 186.527C105.137 186.261 105.291 186.018 105.491 185.812C105.691 185.607 105.933 185.444 106.2 185.334C106.468 185.223 106.756 185.168 107.046 185.171C107.65 185.178 108.228 185.408 108.665 185.814C109.102 186.22 109.365 186.772 109.401 187.36Z"
		fill="#263238" />
	<path
		d="M116.296 187.36C116.314 187.642 116.272 187.925 116.173 188.191C116.074 188.457 115.92 188.7 115.721 188.905C115.522 189.111 115.281 189.274 115.014 189.384C114.747 189.495 114.46 189.551 114.17 189.549C113.566 189.542 112.987 189.312 112.549 188.907C112.111 188.501 111.847 187.948 111.809 187.36C111.79 187.077 111.831 186.794 111.929 186.528C112.028 186.262 112.182 186.018 112.381 185.813C112.581 185.607 112.822 185.444 113.089 185.334C113.356 185.223 113.644 185.168 113.934 185.171C114.538 185.178 115.117 185.407 115.555 185.813C115.993 186.219 116.258 186.772 116.296 187.36Z"
		fill="#263238" />
	<path
		d="M123.19 187.36C123.208 187.643 123.166 187.926 123.067 188.193C122.968 188.459 122.813 188.702 122.613 188.908C122.413 189.113 122.172 189.276 121.904 189.386C121.637 189.497 121.349 189.552 121.058 189.549C120.454 189.543 119.875 189.314 119.438 188.908C119.001 188.501 118.738 187.948 118.703 187.36C118.684 187.077 118.725 186.794 118.824 186.528C118.922 186.262 119.076 186.018 119.276 185.813C119.475 185.607 119.716 185.444 119.984 185.334C120.251 185.223 120.539 185.168 120.829 185.171C121.433 185.178 122.012 185.407 122.45 185.813C122.888 186.219 123.152 186.772 123.19 187.36Z"
		fill="#263238" />
	<path
		d="M130.078 187.36C130.097 187.642 130.056 187.926 129.958 188.192C129.859 188.458 129.705 188.702 129.506 188.907C129.306 189.113 129.065 189.276 128.798 189.386C128.531 189.497 128.243 189.552 127.953 189.549C127.349 189.542 126.77 189.312 126.332 188.907C125.894 188.501 125.629 187.948 125.591 187.36C125.573 187.077 125.615 186.794 125.714 186.527C125.814 186.261 125.968 186.018 126.168 185.812C126.368 185.607 126.61 185.444 126.877 185.334C127.145 185.223 127.433 185.168 127.723 185.171C128.327 185.177 128.906 185.406 129.343 185.812C129.781 186.219 130.043 186.772 130.078 187.36Z"
		fill="#263238" />
	<path
		d="M136.973 187.36C136.992 187.642 136.951 187.926 136.852 188.192C136.754 188.458 136.6 188.702 136.4 188.907C136.201 189.113 135.96 189.276 135.692 189.386C135.425 189.497 135.138 189.552 134.847 189.549C134.243 189.542 133.664 189.312 133.226 188.907C132.788 188.501 132.524 187.948 132.486 187.36C132.468 187.078 132.509 186.795 132.608 186.529C132.707 186.263 132.861 186.02 133.061 185.815C133.26 185.609 133.501 185.446 133.767 185.336C134.034 185.225 134.321 185.169 134.611 185.171C135.215 185.178 135.794 185.408 136.232 185.813C136.67 186.219 136.935 186.772 136.973 187.36Z"
		fill="#263238" />
	<path
		d="M143.867 187.36C143.885 187.643 143.844 187.926 143.744 188.193C143.645 188.459 143.49 188.702 143.29 188.908C143.09 189.113 142.849 189.276 142.581 189.386C142.314 189.497 142.026 189.552 141.735 189.549C141.132 189.542 140.554 189.312 140.117 188.906C139.68 188.5 139.417 187.948 139.38 187.36C139.361 187.077 139.402 186.794 139.501 186.528C139.599 186.262 139.753 186.018 139.953 185.813C140.153 185.607 140.393 185.444 140.661 185.334C140.928 185.223 141.216 185.168 141.506 185.171C142.11 185.178 142.689 185.407 143.127 185.813C143.565 186.219 143.829 186.772 143.867 187.36Z"
		fill="#263238" />
	<path
		d="M218.448 113.037C218.612 113.28 218.697 113.408 218.802 113.581L219.097 114.054C219.288 114.374 219.458 114.694 219.622 115.008C219.95 115.648 220.278 116.288 220.541 116.928C221.091 118.199 221.564 119.5 221.958 120.826C222.752 123.443 223.275 126.132 223.519 128.851L223.565 129.357C223.57 129.459 223.57 129.562 223.565 129.664V130.003C223.576 130.448 223.549 130.893 223.486 131.334C223.36 132.152 223.14 132.952 222.83 133.722C222.254 135.095 221.49 136.387 220.56 137.562C218.826 139.729 216.767 141.63 214.453 143.2L212.642 141.133C214.29 139.317 215.749 137.347 216.998 135.251C217.56 134.3 218.001 133.286 218.31 132.23C218.436 131.783 218.508 131.324 218.527 130.861C218.547 130.663 218.547 130.463 218.527 130.266V130.131C218.533 130.072 218.533 130.012 218.527 129.952L218.448 129.504C218.026 127.119 217.43 124.766 216.664 122.464C216.283 121.318 215.817 120.211 215.352 119.13C215.122 118.586 214.86 118.054 214.597 117.542L214.191 116.787L213.987 116.435L213.817 116.154L218.448 113.037Z"
		fill="#803E3C" />
	<path
		d="M212.347 143.213L214.722 148.109L216.605 143.968C216.605 143.968 214.932 140.384 212.669 140.717L212.347 143.213Z"
		fill="#7F3E3B" />
	<path d="M216.421 148.352L218.31 145.331L216.605 143.968L214.722 148.109L216.421 148.352Z" fill="#7F3E3B" />
	<path
		d="M205.741 261.261C206.232 261.249 206.721 261.184 207.198 261.069C207.222 261.062 207.244 261.048 207.261 261.03C207.278 261.012 207.29 260.99 207.296 260.966C207.3 260.942 207.297 260.917 207.286 260.894C207.276 260.871 207.258 260.852 207.237 260.838C207.047 260.717 205.38 259.667 204.738 259.949C204.666 259.981 204.605 260.031 204.56 260.094C204.515 260.157 204.488 260.231 204.482 260.307C204.462 260.423 204.471 260.542 204.509 260.653C204.547 260.765 204.612 260.866 204.698 260.947C204.996 261.171 205.366 261.283 205.741 261.261ZM206.824 260.883C205.872 261.075 205.151 261.043 204.856 260.794C204.795 260.735 204.751 260.663 204.727 260.584C204.703 260.504 204.7 260.42 204.718 260.339C204.718 260.23 204.783 260.198 204.829 260.179C205.184 260.026 206.148 260.48 206.824 260.883Z"
		fill="#407BFF" />
	<path
		d="M207.165 261.069H207.23C207.25 261.056 207.266 261.039 207.278 261.019C207.289 260.999 207.296 260.977 207.296 260.954C207.296 260.89 207.296 259.347 206.693 258.829C206.618 258.764 206.531 258.715 206.436 258.687C206.341 258.658 206.24 258.65 206.141 258.662C206.038 258.663 205.938 258.699 205.858 258.763C205.778 258.827 205.723 258.916 205.702 259.014C205.577 259.622 206.574 260.774 207.099 261.069H207.165ZM206.227 258.899C206.28 258.898 206.333 258.907 206.382 258.925C206.432 258.944 206.477 258.972 206.515 259.008C206.861 259.506 207.04 260.096 207.027 260.698C206.502 260.288 205.879 259.418 205.958 259.053C205.958 258.995 206.004 258.918 206.168 258.899H206.227Z"
		fill="#407BFF" />
	<path
		d="M199.549 258.65C199.564 258.631 199.574 258.608 199.578 258.585C199.581 258.561 199.578 258.537 199.569 258.514C199.559 258.492 199.544 258.473 199.524 258.458C199.505 258.444 199.481 258.435 199.457 258.432C199.188 258.432 196.833 258.323 196.295 258.886V258.925C196.251 258.98 196.222 259.046 196.211 259.115C196.201 259.185 196.209 259.256 196.236 259.322C196.271 259.431 196.333 259.531 196.416 259.613C196.5 259.694 196.602 259.755 196.715 259.789C197.476 260.019 198.821 259.181 199.555 258.662L199.549 258.65ZM196.492 259.053C196.787 258.746 198.086 258.662 199.057 258.675C198.04 259.354 197.194 259.674 196.767 259.546C196.693 259.524 196.625 259.484 196.57 259.43C196.515 259.377 196.475 259.311 196.452 259.238C196.439 259.214 196.432 259.186 196.432 259.158C196.432 259.13 196.439 259.103 196.452 259.078L196.492 259.053Z"
		fill="#407BFF" />
	<path
		d="M199.549 258.65C199.559 258.63 199.564 258.608 199.564 258.586C199.564 258.563 199.559 258.542 199.549 258.522C199.516 258.47 198.781 257.242 197.915 256.986C197.791 256.95 197.66 256.94 197.532 256.955C197.403 256.97 197.279 257.011 197.167 257.075C196.853 257.254 196.833 257.466 196.872 257.6C197.043 258.195 198.716 258.72 199.437 258.714C199.46 258.713 199.482 258.707 199.502 258.696C199.521 258.685 199.537 258.669 199.549 258.65ZM197.194 257.37C197.231 257.334 197.273 257.304 197.318 257.28C197.399 257.23 197.491 257.197 197.586 257.185C197.681 257.173 197.778 257.181 197.869 257.21C198.44 257.357 198.971 258.074 199.214 258.426C198.433 258.342 197.246 257.875 197.148 257.517C197.139 257.49 197.139 257.461 197.147 257.433C197.156 257.406 197.172 257.382 197.194 257.363V257.37Z"
		fill="#407BFF" />
	<path
		d="M206.771 94.2912C206.115 97.4912 204.698 104.41 206.975 106.534C206.975 106.534 206.082 109.734 200.028 109.734C193.363 109.734 196.846 106.534 196.846 106.534C200.48 105.69 200.388 103.053 199.752 100.582L206.771 94.2912Z"
		fill="#7F3E3B" />
	<path
		d="M195.672 86.7903C195.709 86.7962 195.746 86.7962 195.783 86.7903C195.814 86.7754 195.842 86.7545 195.865 86.729C195.888 86.7035 195.905 86.6738 195.916 86.6416C195.927 86.6095 195.932 86.5755 195.929 86.5417C195.927 86.5079 195.917 86.475 195.901 86.4448C195.725 86.0797 195.461 85.7612 195.133 85.5162C194.804 85.2712 194.42 85.1068 194.012 85.0367C193.944 85.0312 193.876 85.0512 193.822 85.0929C193.769 85.1345 193.733 85.1946 193.723 85.2607C193.716 85.3277 193.736 85.3948 193.779 85.4475C193.822 85.5002 193.884 85.5343 193.953 85.5423C194.275 85.6026 194.577 85.7368 194.835 85.9338C195.093 86.1308 195.299 86.3849 195.436 86.6751C195.461 86.713 195.496 86.7436 195.538 86.7638C195.579 86.7841 195.625 86.7932 195.672 86.7903Z"
		fill="#263238" />
	<path
		d="M193.684 89.6C193.168 90.5342 192.523 91.3955 191.769 92.16C191.973 92.3424 192.215 92.4792 192.479 92.561C192.743 92.6427 193.022 92.6675 193.297 92.6336L193.684 89.6Z"
		fill="#630F0F" />
	<path
		d="M194.176 88.8767C194.124 89.3055 193.841 89.6255 193.559 89.5935C193.277 89.5615 193.081 89.1839 193.133 88.7551C193.185 88.3263 193.468 88.0063 193.789 88.0383C194.11 88.0703 194.222 88.4479 194.176 88.8767Z"
		fill="#263238" />
	<path d="M193.874 88.0768L192.864 87.68C192.864 87.68 193.29 88.5248 193.874 88.0768Z" fill="#263238" />
	<path d="M205.341 257.434L199.988 258.65L196.734 246.643L202.087 245.427L205.341 257.434Z" fill="#7F3E3B" />
	<path d="M213.554 260.941H208.064L208.49 248.531H213.987L213.554 260.941Z" fill="#7F3E3B" />
	<path
		d="M207.624 260.32H213.797C213.904 260.319 214.008 260.356 214.089 260.425C214.17 260.493 214.222 260.588 214.237 260.691L214.938 265.453C214.952 265.573 214.94 265.695 214.902 265.81C214.864 265.926 214.802 266.032 214.719 266.122C214.636 266.212 214.534 266.284 214.42 266.333C214.307 266.382 214.184 266.407 214.059 266.406C211.908 266.374 210.871 266.246 208.155 266.246C206.483 266.246 204.042 266.419 201.74 266.419C199.437 266.419 199.306 264.192 200.27 263.994C204.574 263.085 205.256 261.843 206.706 260.653C206.962 260.439 207.287 260.321 207.624 260.32Z"
		fill="#263238" />
	<path
		d="M199.516 257.85L205.125 255.334C205.22 255.29 205.329 255.281 205.43 255.31C205.531 255.338 205.619 255.401 205.676 255.488L208.359 259.533C208.421 259.637 208.461 259.753 208.475 259.873C208.489 259.993 208.477 260.114 208.44 260.229C208.403 260.344 208.341 260.451 208.26 260.541C208.178 260.632 208.078 260.705 207.965 260.755C205.997 261.6 205 261.914 202.533 263.021C201.018 263.699 197.941 265.261 195.855 266.221C193.769 267.181 192.693 265.19 193.481 264.614C197.003 262.054 198.014 260.218 198.821 258.547C198.957 258.239 199.204 257.991 199.516 257.85Z"
		fill="#263238" />
	<path opacity="0.2" d="M196.734 246.643L198.479 253.082L203.767 251.616L202.094 245.427L196.734 246.643Z"
		fill="black" />
	<path opacity="0.2" d="M213.987 248.531H208.49L208.273 254.931H213.771L213.987 248.531Z" fill="black" />
	<path
		d="M216.48 107.75C218.763 108.243 221.203 116.25 221.203 116.25L214.748 122.95C214.748 122.95 209.389 115.424 210.484 112.659C211.593 109.773 213.758 107.174 216.48 107.75Z"
		fill="#263238" />
	<path opacity="0.4"
		d="M212.833 112.851C211.678 111.821 210.897 112.128 210.366 112.947C209.841 115.328 212.951 120.314 214.204 122.202C214.781 119.949 215.444 115.2 212.833 112.851Z"
		fill="black" />
	<path
		d="M187.557 107.91C187.557 107.91 184.933 108.806 190.181 140.262H212.485C212.111 131.405 212.098 125.939 216.421 107.75C213.296 107.121 210.128 106.715 206.942 106.534C203.57 106.297 200.185 106.297 196.813 106.534C192.49 106.925 187.557 107.91 187.557 107.91Z"
		fill="#263238" />
	<path opacity="0.4"
		d="M187.354 119.981C187.498 121.51 187.688 123.232 187.937 125.178C189.768 123.571 191.263 119.002 190.712 116.339C189.405 117.375 188.272 118.603 187.354 119.981Z"
		fill="black" />
	<path
		d="M189.742 115.2C188.538 118.155 187.183 121.05 185.681 123.872C184.196 126.796 182.44 129.581 180.433 132.192L180.013 132.698L179.803 132.947C179.731 133.03 179.672 133.107 179.56 133.222C179.166 133.643 178.726 134.02 178.248 134.349C177.405 134.919 176.481 135.367 175.506 135.68C173.806 136.21 172.041 136.515 170.258 136.589C166.919 136.718 163.577 136.428 160.313 135.725L160.674 133.037C162.183 133.037 163.764 133.037 165.266 132.915C166.775 132.843 168.278 132.68 169.766 132.429C171.149 132.218 172.501 131.849 173.794 131.328C174.316 131.11 174.805 130.822 175.244 130.47C175.412 130.333 175.563 130.179 175.697 130.01C175.697 130.01 175.775 129.907 175.828 129.837L175.979 129.626L176.287 129.203C177.933 126.723 179.399 124.133 180.676 121.453C181.988 118.733 183.3 115.91 184.5 113.133L189.742 115.2Z"
		fill="#803E3C" />
	<path
		d="M187.557 107.91C184.821 108.55 181.463 115.872 181.463 115.872L187.131 124C187.131 124 194.681 114.726 193.782 111.898C192.864 108.947 190.896 107.117 187.557 107.91Z"
		fill="#263238" />
	<path
		d="M162.248 133.446L157.519 131.315L157.046 135.904C157.046 135.904 160.982 137.037 162.95 135.904L162.248 133.446Z"
		fill="#7F3E3B" />
	<path d="M154.691 130.854L154.239 134.349L157.046 135.904L157.519 131.315L154.691 130.854Z" fill="#7F3E3B" />
	<path
		d="M209.146 89.1904C208.142 94.4192 207.834 96.6592 204.764 99.0336C200.172 102.605 193.776 100.262 193.159 94.848C192.595 89.9712 194.327 82.24 199.883 80.768C201.107 80.4385 202.397 80.4205 203.63 80.7156C204.864 81.0106 205.999 81.609 206.927 82.4535C207.856 83.2981 208.548 84.3607 208.936 85.54C209.325 86.7193 209.397 87.9761 209.146 89.1904Z"
		fill="#7F3E3B" />
	<path
		d="M197.371 90.2912C197.062 92.96 196.944 99.8912 202.953 100.109C210.307 100.371 212.511 94.24 211.855 91.7888C215.686 88.7488 216.237 83.52 211.934 79.52C207.631 75.52 198.158 77.7536 195.534 81.6512C192.208 86.4832 197.371 90.2912 197.371 90.2912Z"
		fill="#263238" />
	<path
		d="M204.738 81.0751C204.383 78.2591 204.659 76.3199 207.362 76.3199C210.064 76.3199 213.751 77.2735 215.102 79.9679C216.454 82.6623 216.565 86.8799 212.793 86.4511C209.021 86.0223 205.164 84.4415 204.738 81.0751Z"
		fill="#407BFF" />
	<path
		d="M208.923 80.3968C208.267 77.0432 211.344 67.5968 218.815 66.9568C222.279 66.6688 223.88 70.304 222.095 70.9056C225.375 70.8672 227.475 75.0976 224.418 75.7312C226.832 77.2416 226.235 80.3392 222.791 81.8624C220.226 83.0144 209.809 85.0432 208.923 80.3968Z"
		fill="#263238" />
	<path
		d="M216.906 84C214.499 84 211.986 83.6544 210.425 82.6368C209.989 82.38 209.621 82.0255 209.353 81.6026C209.085 81.1796 208.924 80.7005 208.884 80.2048C208.882 80.1627 208.896 80.1214 208.924 80.0894C208.952 80.0573 208.992 80.0368 209.034 80.032C209.056 80.0293 209.078 80.0311 209.099 80.0372C209.12 80.0433 209.14 80.0536 209.156 80.0674C209.173 80.0813 209.187 80.0984 209.196 80.1176C209.206 80.1369 209.211 80.1578 209.212 80.1792C209.251 80.6265 209.398 81.0584 209.641 81.4399C209.884 81.8213 210.215 82.1415 210.609 82.3744C213.581 84.2944 220.449 83.6544 222.587 83.0144C224.437 82.4256 225.69 81.28 225.94 79.9616C226.017 79.4778 225.956 78.9824 225.763 78.5305C225.569 78.0786 225.251 77.6878 224.844 77.4016C224.828 77.3872 224.816 77.3699 224.807 77.3506C224.799 77.3313 224.794 77.3106 224.794 77.2896C224.794 77.2686 224.799 77.2478 224.807 77.2285C224.816 77.2093 224.828 77.1919 224.844 77.1776C224.875 77.1483 224.916 77.1318 224.959 77.1318C225.002 77.1318 225.043 77.1483 225.074 77.1776C225.532 77.5035 225.888 77.9473 226.102 78.4593C226.316 78.9712 226.38 79.5313 226.287 80.0768C226.018 81.5168 224.687 82.7456 222.719 83.3728C220.82 83.8398 218.864 84.0508 216.906 84Z"
		fill="#263238" />
	<path
		d="M195.698 89.6C195.087 90.436 194.835 91.4717 194.996 92.4864C195.213 93.8304 196.551 93.92 197.522 93.0624C198.493 92.2048 199.339 90.656 198.624 89.5424C198.465 89.3018 198.245 89.1049 197.986 88.9705C197.728 88.836 197.438 88.7685 197.144 88.7743C196.851 88.78 196.564 88.8589 196.311 89.0035C196.058 89.148 195.847 89.3534 195.698 89.6Z"
		fill="#7F3E3B" />
	<path
		d="M196.072 140.262C196.072 140.262 199.26 177.056 202.573 197.792C205.243 214.541 207.355 253.69 207.355 253.69H214.847C214.847 253.69 217.51 215.712 216.159 199.149C212.728 157.229 220.383 153.811 212.505 140.269L196.072 140.262Z"
		fill="#407BFF" />
	<path opacity="0.4"
		d="M205.505 154.17C202.536 157.21 200.14 160.737 198.427 164.589C199.299 172.858 200.336 182.035 201.438 190.074C205.96 178.652 207.362 166.279 205.505 154.17Z"
		fill="black" />
	<path
		d="M190.83 140.032C190.83 140.032 183.91 180.218 182.821 198.33C185.537 215.078 196.649 250.483 196.649 250.483L203.465 248.07C203.465 248.07 199.693 209.466 195.593 198.899C204.823 168.582 211.606 160.915 209.631 140.262C204.902 140.262 190.83 140.032 190.83 140.032Z"
		fill="#407BFF" />
	<path d="M195.737 252.25L204.948 249.811L204.423 246.227L194.563 248.832L195.737 252.25Z" fill="#263238" />
	<path d="M206.325 253.837H215.87L216.369 250.573L206.273 250.24L206.325 253.837Z" fill="#263238" />
	<path
		d="M212.833 138.982L213.836 140.934C213.915 141.088 213.731 141.242 213.476 141.242H190.069C189.873 141.242 189.702 141.146 189.689 141.018L189.486 139.098C189.486 138.963 189.65 138.848 189.866 138.848H212.465C212.533 138.839 212.602 138.846 212.666 138.87C212.73 138.893 212.788 138.932 212.833 138.982Z"
		fill="#407BFF" />
	<path opacity="0.5"
		d="M212.833 138.982L213.836 140.934C213.915 141.088 213.731 141.242 213.476 141.242H190.069C189.873 141.242 189.702 141.146 189.689 141.018L189.486 139.098C189.486 138.963 189.65 138.848 189.866 138.848H212.465C212.533 138.839 212.602 138.846 212.666 138.87C212.73 138.893 212.788 138.932 212.833 138.982Z"
		fill="black" />
	<path
		d="M209.795 141.44H210.399C210.524 141.44 210.615 141.376 210.609 141.306L210.32 138.746C210.32 138.669 210.209 138.611 210.091 138.611H209.481C209.362 138.611 209.271 138.669 209.277 138.746L209.559 141.306C209.572 141.389 209.677 141.44 209.795 141.44Z"
		fill="#407BFF" />
	<path
		d="M201.674 122.803C201.602 122.802 201.532 122.779 201.474 122.736C201.416 122.693 201.374 122.634 201.353 122.566C199.214 114.848 194.793 108.486 192.648 107.526C192.481 107.427 192.281 107.394 192.09 107.437C192.05 107.457 192.007 107.469 191.962 107.473C191.918 107.476 191.873 107.47 191.83 107.456C191.788 107.442 191.749 107.42 191.716 107.39C191.683 107.361 191.656 107.325 191.638 107.285C191.62 107.245 191.61 107.202 191.609 107.159C191.608 107.115 191.617 107.072 191.634 107.031C191.651 106.991 191.677 106.954 191.709 106.924C191.741 106.893 191.779 106.87 191.821 106.854C192 106.79 192.192 106.765 192.382 106.78C192.573 106.796 192.757 106.852 192.923 106.944C195.193 107.994 199.68 114.266 201.923 122.157C203.531 122.157 206.01 121.946 206.614 121.894C207.362 121.024 212.859 114.317 210.806 106.976C210.794 106.936 210.79 106.893 210.795 106.852C210.801 106.81 210.814 106.77 210.836 106.733C210.857 106.697 210.886 106.665 210.92 106.64C210.954 106.614 210.994 106.596 211.035 106.586C211.119 106.564 211.208 106.575 211.282 106.617C211.357 106.659 211.412 106.728 211.435 106.81C213.725 114.976 207.086 122.342 207.014 122.413C206.988 122.444 206.956 122.469 206.92 122.488C206.884 122.507 206.845 122.518 206.804 122.522C206.771 122.522 203.498 122.803 201.674 122.803Z"
		fill="#407BFF" />
	<path
		d="M212.544 127.322C208.969 120.787 207.506 120.326 206.87 118.227C207.352 117.053 208.04 115.97 208.903 115.027C208.47 114.906 207.539 114.726 206.935 114.618C207.001 114.33 207.073 114.048 207.139 113.773C206.482 113.701 205.818 113.731 205.171 113.862V113.222C204.337 113.045 203.482 112.992 202.632 113.062C202.706 113.365 202.778 113.672 202.848 113.984C202.192 114.106 201.195 114.304 200.716 114.438C201.647 115.467 202.331 116.684 202.717 118.003C200.789 121.235 193.297 142.01 205.486 143.603C217.674 145.197 216.113 133.862 212.544 127.322Z"
		fill="#407BFF" />
	<path opacity="0.4"
		d="M212.544 127.322C208.969 120.787 207.506 120.326 206.87 118.227C207.352 117.053 208.04 115.97 208.903 115.027C208.47 114.906 207.539 114.726 206.935 114.618C207.001 114.33 207.073 114.048 207.139 113.773C206.482 113.701 205.818 113.731 205.171 113.862V113.222C204.337 113.045 203.482 112.992 202.632 113.062C202.706 113.365 202.778 113.672 202.848 113.984C202.192 114.106 201.195 114.304 200.716 114.438C201.647 115.467 202.331 116.684 202.717 118.003C200.789 121.235 193.297 142.01 205.486 143.603C217.674 145.197 216.113 133.862 212.544 127.322Z"
		fill="white" />
	<path
		d="M202.219 117.382C202.143 117.712 202.11 118.05 202.12 118.387C202.12 118.624 202.776 118.784 203.504 118.854C204.233 118.925 207.289 119.04 207.191 118.707C207.093 118.374 207.342 117.92 207.355 117.638C207.368 117.357 206.141 117.344 205.112 117.382C204.082 117.421 202.422 117.024 202.219 117.382Z"
		fill="#407BFF" />
	<path
		d="M195.127 141.44H195.731C195.849 141.44 195.941 141.376 195.934 141.306L195.652 138.746C195.652 138.669 195.54 138.611 195.416 138.611H194.832C194.714 138.611 194.622 138.669 194.629 138.746L194.911 141.306C194.898 141.389 195.003 141.44 195.127 141.44Z"
		fill="#407BFF" />
</svg>