<svg width="500" height="500" viewBox="0 0 500 500" fill="none" xmlns="http://www.w3.org/2000/svg">
<path d="M500 381.94H0V382.19H500V381.94Z" fill="#EBEBEB"/>
<path d="M433.79 392.567H400.67V392.817H433.79V392.567Z" fill="#EBEBEB"/>
<path d="M313.07 392.447H304.38V392.697H313.07V392.447Z" fill="#EBEBEB"/>
<path d="M449.9 398.01H430.71V398.26H449.9V398.01Z" fill="#EBEBEB"/>
<path d="M114.6 401.327H71.41V401.577H114.6V401.327Z" fill="#EBEBEB"/>
<path d="M110.89 390.42H104.56V390.67H110.89V390.42Z" fill="#EBEBEB"/>
<path d="M248.45 391.488H187.55V391.738H248.45V391.488Z" fill="#EBEBEB"/>
<path d="M237 337.394H43.91C42.3973 337.391 40.9475 336.789 39.8789 335.72C38.8102 334.65 38.21 333.201 38.21 331.69V60.587C38.2232 59.0849 38.8292 57.6485 39.8964 56.5901C40.9637 55.5316 42.406 54.9364 43.91 54.9338H237C238.514 54.9338 239.967 55.5347 241.038 56.6042C242.108 57.6738 242.71 59.1244 242.71 60.637V331.69C242.71 333.203 242.108 334.654 241.038 335.723C239.967 336.793 238.514 337.394 237 337.394ZM43.91 55.1336C42.4636 55.1362 41.0774 55.712 40.0557 56.7344C39.0339 57.7568 38.46 59.1424 38.46 60.587V331.69C38.46 333.135 39.0339 334.521 40.0557 335.543C41.0774 336.565 42.4636 337.141 43.91 337.144H237C238.447 337.141 239.835 336.566 240.858 335.544C241.881 334.521 242.457 333.136 242.46 331.69V60.587C242.457 59.1415 241.881 57.7559 240.858 56.7338C239.835 55.7116 238.447 55.1362 237 55.1336H43.91Z" fill="#EBEBEB"/>
<path d="M453.31 337.394H260.21C258.696 337.391 257.246 336.789 256.175 335.72C255.105 334.651 254.503 333.202 254.5 331.69V60.587C254.516 59.084 255.124 57.6476 256.193 56.5894C257.262 55.5312 258.705 54.9364 260.21 54.9338H453.31C454.812 54.939 456.252 55.5354 457.317 56.5936C458.382 57.6518 458.987 59.0866 459 60.587V331.69C459 333.199 458.401 334.647 457.335 335.716C456.268 336.785 454.821 337.388 453.31 337.394ZM260.21 55.1336C258.763 55.1362 257.375 55.7116 256.352 56.7338C255.329 57.7559 254.753 59.1415 254.75 60.587V331.69C254.753 333.136 255.329 334.521 256.352 335.544C257.375 336.566 258.763 337.141 260.21 337.144H453.31C454.757 337.141 456.145 336.566 457.168 335.544C458.191 334.521 458.767 333.136 458.77 331.69V60.587C458.767 59.1415 458.191 57.7559 457.168 56.7338C456.145 55.7116 454.757 55.1362 453.31 55.1336H260.21Z" fill="#EBEBEB"/>
<path d="M74.75 352.276C74.2467 350.619 73.9708 348.902 73.93 347.172C73.93 340.4 79.37 339.012 87.54 339.012C95.71 339.012 101.15 340.4 101.15 347.172C101.126 348.629 100.924 350.078 100.55 351.487C96.817 348.629 92.2104 347.146 87.5093 347.29C82.8081 347.434 78.3009 349.195 74.75 352.276ZM104.34 355.222C105.165 352.616 105.607 349.904 105.65 347.172C105.65 332.599 93 332.599 87.54 332.599C82.08 332.599 69.43 332.599 69.43 347.192C69.4912 350.321 70.055 353.42 71.1 356.371C68.4956 360.25 67.295 364.9 67.6969 369.554C68.0987 374.207 70.079 378.584 73.31 381.96H103C106.402 378.413 108.413 373.761 108.664 368.856C108.916 363.95 107.392 359.118 104.37 355.242L104.34 355.222Z" fill="#E6E6E6"/>
<path d="M129.11 354.573C128.648 353.046 128.395 351.463 128.36 349.869C128.36 343.636 133.36 342.358 140.91 342.358C148.46 342.358 153.45 343.636 153.45 349.869C153.433 351.219 153.245 352.561 152.89 353.864C149.446 351.237 145.201 349.875 140.87 350.008C136.539 350.141 132.386 351.76 129.11 354.593V354.573ZM156.39 357.3C157.151 354.894 157.559 352.391 157.6 349.869C157.6 336.425 145.9 336.425 140.91 336.425C135.92 336.425 124.21 336.425 124.21 349.869C124.269 352.756 124.788 355.615 125.75 358.338C123.349 361.91 122.238 366.193 122.602 370.48C122.966 374.767 124.781 378.802 127.75 381.92H155.09C158.223 378.65 160.075 374.364 160.306 369.844C160.537 365.324 159.133 360.871 156.35 357.3H156.39Z" fill="#E6E6E6"/>
<path d="M183.48 356.91C183.052 355.517 182.819 354.072 182.79 352.615C182.79 346.902 187.38 345.733 194.27 345.733C201.16 345.733 205.75 346.902 205.75 352.615C205.729 353.843 205.557 355.064 205.24 356.251C202.091 353.843 198.207 352.593 194.243 352.713C190.278 352.833 186.477 354.316 183.48 356.91ZM208.48 359.407C209.178 357.209 209.552 354.921 209.59 352.615C209.59 340.31 198.88 340.31 194.31 340.31C189.74 340.31 179 340.31 179 352.575C179.057 355.214 179.533 357.826 180.41 360.316C178.217 363.589 177.206 367.51 177.544 371.434C177.882 375.358 179.549 379.049 182.27 381.9H207.27C210.135 378.906 211.827 374.983 212.039 370.847C212.25 366.711 210.965 362.636 208.42 359.367L208.48 359.407Z" fill="#E6E6E6"/>
<path d="M237.84 359.237C237.459 357.969 237.251 356.656 237.22 355.332C237.22 350.148 241.38 349.089 247.63 349.089C253.88 349.089 258.05 350.148 258.05 355.332C258.031 356.448 257.876 357.558 257.59 358.638C254.732 356.453 251.206 355.319 247.608 355.428C244.01 355.537 240.56 356.883 237.84 359.237ZM260.49 361.494C261.122 359.5 261.459 357.424 261.49 355.332C261.49 344.165 251.78 344.165 247.63 344.165C243.48 344.165 233.77 344.165 233.77 355.332C233.825 357.715 234.257 360.075 235.05 362.323C233.058 365.291 232.14 368.849 232.447 372.409C232.755 375.968 234.269 379.317 236.74 381.9H259.44C262.04 379.184 263.577 375.625 263.77 371.872C263.962 368.119 262.798 364.422 260.49 361.455V361.494Z" fill="#E6E6E6"/>
<path d="M289.78 361.564C289.433 360.43 289.245 359.254 289.22 358.069C289.22 353.414 292.96 352.465 298.57 352.465C304.18 352.465 307.92 353.414 307.92 358.069C307.908 359.081 307.767 360.088 307.5 361.065C304.933 359.109 301.771 358.096 298.544 358.194C295.317 358.292 292.223 359.496 289.78 361.604V361.564ZM310.11 363.562C310.677 361.771 310.98 359.907 311.01 358.029C311.01 348.041 302.29 348.041 298.57 348.041C294.85 348.041 286.13 348.041 286.13 358.029C286.173 360.177 286.561 362.305 287.28 364.331C285.493 366.996 284.668 370.19 284.943 373.385C285.217 376.581 286.574 379.588 288.79 381.91H309.17C311.501 379.471 312.879 376.278 313.051 372.91C313.224 369.543 312.18 366.226 310.11 363.562Z" fill="#E6E6E6"/>
<path d="M248.23 100.209H26.25V260.906H248.23V100.209Z" fill="#F5F5F5"/>
<path d="M248.22 184.777H84V260.906H248.22V184.777Z" fill="#FAFAFA"/>
<path d="M25.45 260.916H26.25L26.25 100.219H25.45L25.45 260.916Z" fill="#E6E6E6"/>
<path d="M140.46 100.209H95.89L50.46 260.906H95.03L140.46 100.209Z" fill="white"/>
<path d="M162.56 100.209H147.04L101.61 260.906H117.13L162.56 100.209Z" fill="white"/>
<path d="M474.56 100.209H252.58V260.906H474.56V100.209Z" fill="#F5F5F5"/>
<path d="M426.11 153.255H324.07V229.384H426.11V153.255Z" fill="#FAFAFA"/>
<path d="M449.23 229.394H474.56V153.265H449.23V229.394Z" fill="#FAFAFA"/>
<path d="M251.78 260.916H252.58L252.58 100.219H251.78L251.78 260.916Z" fill="#E6E6E6"/>
<path d="M344.5 100.209H320.49L275.05 260.906H299.06L344.5 100.209Z" fill="white"/>
<path d="M374.97 100.209H350.96L305.53 260.906H329.54L374.97 100.209Z" fill="white"/>
<path d="M474.78 283.329H32.69V291.988H474.78V283.329Z" fill="#EBEBEB"/>
<path d="M41.36 283.329H32.69V291.988H41.36V283.329Z" fill="#E0E0E0"/>
<path d="M353.84 307.07H354.84C375.15 307.589 393.23 324.15 395.46 344.505C397.69 364.86 383.22 381.421 363 381.93H362C341.31 381.93 322.68 365.17 320.42 344.505C318.16 323.84 333.15 307.07 353.84 307.07ZM359.04 350.727C359.832 350.745 360.618 350.591 361.344 350.275C362.071 349.959 362.72 349.49 363.247 348.899C363.773 348.308 364.165 347.61 364.396 346.853C364.626 346.096 364.689 345.299 364.58 344.515C364.365 342.825 363.551 341.268 362.285 340.126C361.019 338.984 359.385 338.334 357.68 338.292C356.887 338.275 356.099 338.429 355.372 338.746C354.644 339.062 353.994 339.532 353.466 340.124C352.939 340.715 352.546 341.414 352.315 342.173C352.084 342.931 352.021 343.73 352.13 344.515C352.346 346.198 353.157 347.749 354.417 348.888C355.676 350.027 357.302 350.679 359 350.727H359.04Z" fill="#E0E0E0"/>
<path d="M354.65 307.08H355.65C376.35 307.08 394.96 323.85 397.23 344.525C399.5 365.2 384.56 381.95 363.87 381.95H362.87C342.56 381.44 324.48 364.88 322.24 344.535C320 324.189 334.45 307.629 354.65 307.08ZM360.41 350.727C361.202 350.745 361.988 350.591 362.714 350.275C363.441 349.959 364.09 349.49 364.617 348.899C365.143 348.308 365.535 347.61 365.766 346.853C365.996 346.096 366.059 345.299 365.95 344.515C365.734 342.817 364.912 341.253 363.636 340.11C362.36 338.967 360.714 338.322 359 338.292C358.208 338.276 357.421 338.432 356.695 338.749C355.969 339.066 355.32 339.536 354.793 340.128C354.267 340.719 353.875 341.418 353.644 342.175C353.414 342.933 353.351 343.731 353.46 344.515C353.678 346.212 354.501 347.773 355.777 348.914C357.053 350.054 358.698 350.698 360.41 350.727Z" fill="#F0F0F0"/>
<path d="M335.42 323.95C337.979 321.317 341.05 319.234 344.445 317.831C347.84 316.428 351.486 315.733 355.16 315.79C371.82 315.79 386.81 329.273 388.64 345.913C389.098 349.546 388.82 353.233 387.822 356.756C386.824 360.279 385.126 363.565 382.83 366.419C385.542 363.507 387.579 360.036 388.799 356.251C390.019 352.466 390.392 348.46 389.89 344.515C388.06 327.865 373.08 314.381 356.42 314.381C352.427 314.312 348.469 315.135 344.835 316.791C341.202 318.446 337.985 320.892 335.42 323.95Z" fill="#E6E6E6"/>
<path d="M410.28 318.326H411.1C428.36 318.766 443.72 332.839 445.62 350.128C447.52 367.417 435.24 381.49 418.08 381.92H417.26C399.68 381.92 383.86 367.677 381.93 350.118C380 332.559 392.7 318.326 410.28 318.326ZM414.7 355.422C415.373 355.435 416.041 355.303 416.658 355.034C417.275 354.765 417.826 354.366 418.273 353.863C418.721 353.361 419.054 352.768 419.25 352.125C419.447 351.482 419.501 350.804 419.41 350.138C419.224 348.703 418.53 347.381 417.454 346.412C416.377 345.443 414.989 344.89 413.54 344.855C412.867 344.839 412.198 344.971 411.58 345.239C410.962 345.508 410.411 345.907 409.963 346.409C409.515 346.912 409.181 347.506 408.986 348.149C408.79 348.793 408.737 349.472 408.83 350.138C409.002 351.58 409.692 352.91 410.771 353.881C411.851 354.853 413.247 355.401 414.7 355.422Z" fill="#E0E0E0"/>
<path d="M411 318.336H411.82C429.41 318.336 445.22 332.579 447.15 350.148C449.08 367.717 436.39 381.95 418.8 381.95H418C400.74 381.52 385.38 367.447 383.48 350.158C381.58 332.869 393.81 318.776 411 318.336ZM415.89 355.422C416.563 355.437 417.232 355.306 417.85 355.037C418.468 354.769 419.019 354.369 419.467 353.867C419.915 353.364 420.249 352.771 420.444 352.127C420.64 351.483 420.693 350.805 420.6 350.138C420.416 348.702 419.723 347.379 418.646 346.409C417.569 345.44 416.179 344.888 414.73 344.855C414.057 344.839 413.388 344.971 412.77 345.239C412.153 345.508 411.601 345.907 411.153 346.409C410.705 346.912 410.371 347.506 410.176 348.149C409.98 348.793 409.927 349.472 410.02 350.138C410.203 351.57 410.892 352.889 411.963 353.857C413.034 354.826 414.416 355.381 415.86 355.422H415.89Z" fill="#F5F5F5"/>
<path d="M394.63 332.659C396.805 330.425 399.415 328.658 402.299 327.468C405.183 326.277 408.28 325.689 411.4 325.738C425.56 325.738 438.29 337.194 439.85 351.327C440.237 354.414 439.999 357.548 439.151 360.542C438.302 363.536 436.86 366.329 434.91 368.756C437.215 366.282 438.948 363.331 439.985 360.114C441.022 356.897 441.338 353.491 440.91 350.138C439.35 335.995 426.63 324.539 412.47 324.539C409.079 324.481 405.717 325.18 402.631 326.585C399.545 327.99 396.811 330.065 394.63 332.659Z" fill="#E6E6E6"/>
<path d="M250 427.045C357.082 427.045 443.89 421.983 443.89 415.739C443.89 409.495 357.082 404.433 250 404.433C142.917 404.433 56.11 409.495 56.11 415.739C56.11 421.983 142.917 427.045 250 427.045Z" fill="#F5F5F5"/>
<path d="M235 199.44C233.394 198.412 231.445 198.063 229.581 198.47C227.717 198.876 226.091 200.004 225.06 201.607L224.84 201.957L224.42 202.616L223.92 203.355C223.59 203.864 223.25 204.354 222.92 204.873C222.22 205.872 221.51 206.871 220.77 207.87C219.337 209.801 217.798 211.652 216.16 213.413C214.642 215.065 212.967 216.567 211.16 217.898C210.73 218.217 210.3 218.507 209.87 218.786C209.53 218.147 209.19 217.378 208.87 216.569C208 214.257 207.278 211.892 206.71 209.488C205.49 204.494 204.55 199.16 203.66 193.956V193.837C203.521 192.974 203.071 192.191 202.395 191.637C201.719 191.082 200.864 190.792 199.99 190.823C199.115 190.854 198.282 191.202 197.647 191.803C197.012 192.404 196.618 193.216 196.54 194.086C195.963 199.749 195.896 205.451 196.34 211.126C196.553 214.121 197.007 217.093 197.7 220.015C198.095 221.678 198.648 223.3 199.35 224.859C199.779 225.804 200.291 226.71 200.88 227.566C201.656 228.7 202.623 229.69 203.74 230.492C205.261 231.592 207.065 232.233 208.94 232.34C209.859 232.395 210.78 232.325 211.68 232.13C212.084 232.048 212.481 231.938 212.87 231.801L213.41 231.611L213.72 231.501C215.347 230.892 216.919 230.147 218.42 229.274C221.2 227.63 223.786 225.681 226.13 223.461C228.355 221.366 230.414 219.101 232.29 216.689C233.21 215.5 234.1 214.292 234.94 213.053C235.36 212.424 235.77 211.795 236.17 211.146L236.76 210.147L237.39 209.048C238.297 207.445 238.555 205.556 238.11 203.769C237.666 201.982 236.553 200.432 235 199.44Z" fill="#CE7A63"/>
<path d="M202.79 195.514L208.37 189.691L197.37 186.855C197.37 186.855 192.7 192.129 197.03 196.753L202.79 195.514Z" fill="#CE7A63"/>
<path d="M203.65 201.228L196.49 201.687C196.234 201.709 195.975 201.678 195.732 201.594C195.488 201.511 195.265 201.377 195.077 201.202C194.888 201.027 194.739 200.814 194.638 200.578C194.536 200.341 194.486 200.086 194.49 199.829V196.583C194.495 196.053 194.698 195.544 195.058 195.154C195.419 194.765 195.911 194.523 196.44 194.476L203.61 194.016C203.863 194 204.116 194.036 204.354 194.122C204.592 194.208 204.81 194.343 204.993 194.518C205.177 194.692 205.322 194.903 205.419 195.136C205.517 195.37 205.565 195.621 205.56 195.874V199.12C205.558 199.645 205.362 200.15 205.009 200.539C204.657 200.928 204.173 201.173 203.65 201.228Z" fill="#263238"/>
<path d="M207.29 183.739L197.37 184.218V186.855L208.37 189.691L207.29 183.739Z" fill="#CE7A63"/>
<path d="M224.71 202.037C224.37 211.385 226.71 232.939 243.54 276.497L296.18 272.672C294.92 265.45 283.86 234.308 282.18 199.929C281.96 195.604 277.85 191.939 273.1 191.689C270.1 191.559 266.66 191.489 263.32 191.609C255.599 191.793 247.894 192.399 240.24 193.427C236.738 194.03 233.273 194.827 229.86 195.814C228.442 196.153 227.173 196.943 226.244 198.066C225.315 199.188 224.776 200.582 224.71 202.037Z" fill="#407BFF"/>
<path opacity="0.3" d="M254 219.635C253.881 219.637 253.766 219.595 253.676 219.518C253.586 219.44 253.527 219.333 253.51 219.216C253.487 219.086 253.516 218.952 253.59 218.844C253.665 218.735 253.78 218.661 253.91 218.637L262.91 217.039C263.043 217.015 263.179 217.044 263.29 217.121C263.401 217.198 263.476 217.316 263.5 217.448C263.524 217.581 263.494 217.717 263.417 217.828C263.34 217.938 263.223 218.014 263.09 218.037L254.09 219.635H254Z" fill="white"/>
<path opacity="0.3" d="M254.16 221.733C254.027 221.743 253.896 221.701 253.795 221.615C253.693 221.529 253.631 221.406 253.62 221.273C253.609 221.141 253.652 221.01 253.738 220.909C253.824 220.807 253.947 220.745 254.08 220.734L263.08 219.136C263.144 219.125 263.21 219.126 263.274 219.141C263.338 219.155 263.398 219.182 263.451 219.221C263.505 219.259 263.55 219.307 263.584 219.363C263.618 219.419 263.64 219.481 263.65 219.546C263.673 219.675 263.644 219.809 263.569 219.918C263.495 220.026 263.38 220.101 263.25 220.125L254.25 221.723L254.16 221.733Z" fill="white"/>
<path opacity="0.3" d="M254.3 223.91C254.181 223.911 254.066 223.87 253.976 223.792C253.886 223.715 253.827 223.608 253.81 223.491C253.787 223.361 253.816 223.227 253.89 223.119C253.965 223.01 254.08 222.936 254.21 222.911L263.21 221.323C263.34 221.3 263.474 221.329 263.582 221.404C263.691 221.479 263.766 221.593 263.79 221.723C263.81 221.854 263.779 221.987 263.703 222.096C263.626 222.204 263.51 222.278 263.38 222.302L254.38 223.9L254.3 223.91Z" fill="white"/>
<path opacity="0.3" d="M290.36 273.5C290.243 273.502 290.129 273.462 290.039 273.386C289.949 273.311 289.889 273.207 289.87 273.091C289.58 271.413 288.75 268.437 287.6 264.322C283.95 251.137 277.13 226.617 275.82 200.279C275.813 200.146 275.86 200.017 275.949 199.918C276.038 199.82 276.162 199.761 276.295 199.754C276.428 199.748 276.557 199.794 276.656 199.883C276.754 199.972 276.813 200.096 276.82 200.229C278.13 226.457 284.92 250.908 288.57 264.052C289.72 268.197 290.57 271.193 290.85 272.921C290.873 273.051 290.844 273.185 290.77 273.293C290.695 273.402 290.58 273.476 290.45 273.5H290.36Z" fill="white"/>
<path opacity="0.4" d="M282.75 208.239C277.82 206.002 273.1 204.614 273.75 208.239C275.395 216.432 279.596 223.893 285.75 229.553C284.48 222.822 283.43 215.65 282.75 208.239Z" fill="black"/>
<path d="M312.15 195.764L316.42 188.872L304.62 186.635C304.62 186.635 301.15 192.838 306.62 197.622L312.15 195.764Z" fill="#CE7A63"/>
<path d="M315.17 183.329L305.11 183.499L304.62 186.585L316.42 188.823L315.17 183.329Z" fill="#CE7A63"/>
<path d="M147.73 221.164C139.73 221.164 133.24 206.631 133.24 188.703C133.24 170.774 139.73 156.252 147.73 156.252H153.16V221.174L147.73 221.164Z" fill="#407BFF"/>
<path d="M153.16 221.154C161.163 221.154 167.65 206.625 167.65 188.703C167.65 170.781 161.163 156.252 153.16 156.252C145.157 156.252 138.67 170.781 138.67 188.703C138.67 206.625 145.157 221.154 153.16 221.154Z" fill="#407BFF"/>
<path opacity="0.2" d="M153.16 221.154C161.163 221.154 167.65 206.625 167.65 188.703C167.65 170.781 161.163 156.252 153.16 156.252C145.157 156.252 138.67 170.781 138.67 188.703C138.67 206.625 145.157 221.154 153.16 221.154Z" fill="black"/>
<path d="M156.22 221.164C148.22 221.164 141.73 206.631 141.73 188.703C141.73 170.774 148.22 156.252 156.22 156.252H161.65V221.174L156.22 221.164Z" fill="#407BFF"/>
<path d="M161.65 221.154C169.653 221.154 176.14 206.625 176.14 188.703C176.14 170.781 169.653 156.252 161.65 156.252C153.647 156.252 147.16 170.781 147.16 188.703C147.16 206.625 153.647 221.154 161.65 221.154Z" fill="#407BFF"/>
<path opacity="0.2" d="M161.65 221.154C169.653 221.154 176.14 206.625 176.14 188.703C176.14 170.781 169.653 156.252 161.65 156.252C153.647 156.252 147.16 170.781 147.16 188.703C147.16 206.625 153.647 221.154 161.65 221.154Z" fill="black"/>
<path opacity="0.2" d="M162.89 189.691L175.56 197.762C175.922 194.996 176.112 192.211 176.13 189.422L162.89 189.691Z" fill="black"/>
<path d="M350.93 190.481H163.71C163.238 190.481 162.785 190.293 162.451 189.96C162.118 189.626 161.93 189.174 161.93 188.703C161.93 188.231 162.118 187.779 162.451 187.446C162.785 187.112 163.238 186.925 163.71 186.925H350.93C351.401 186.927 351.853 187.116 352.186 187.448C352.519 187.781 352.707 188.232 352.71 188.703C352.707 189.173 352.519 189.624 352.186 189.957C351.853 190.29 351.401 190.478 350.93 190.481Z" fill="#263238"/>
<path opacity="0.9" d="M263.28 191.609C255.559 191.793 247.854 192.399 240.2 193.427C239.32 193.567 238.44 193.737 237.59 193.906C235.34 198.82 237.97 206.122 245.05 214.362L247.13 216.779L248.4 213.852C252.93 203.475 258.4 196.393 264.21 193.377L267.77 191.559C266.28 191.539 264.77 191.559 263.28 191.609Z" fill="white"/>
<path d="M255.61 167.698C255.69 174.69 257.06 187.424 263.28 191.609C256.79 194.965 251 202.756 246.56 213.053C239.93 205.343 236.75 197.692 240.2 193.427C248.07 190.94 246.59 185.267 243.95 180.033L255.61 167.698Z" fill="#CE7A63"/>
<path opacity="0.2" d="M250.86 172.732L243.95 180.023C244.58 181.22 245.102 182.47 245.51 183.759C248.58 183.089 252.21 179.534 251.86 176.437C251.759 175.151 251.42 173.895 250.86 172.732Z" fill="black"/>
<path d="M232.2 148.171C229.51 149.65 227.26 160.337 233.57 164.462C239.88 168.587 238.2 144.895 232.2 148.171Z" fill="#263238"/>
<path d="M258.28 156.651C257.73 166.42 257.91 172.163 253 177.276C245.61 184.977 233.53 180.782 231.14 171.094C229 162.374 230.26 147.862 239.8 143.757C241.872 142.83 244.149 142.455 246.409 142.668C248.67 142.882 250.836 143.677 252.697 144.975C254.558 146.274 256.051 148.032 257.029 150.078C258.008 152.125 258.439 154.389 258.28 156.651Z" fill="#CE7A63"/>
<path d="M233.57 150.109C224.72 146.563 217.57 135.846 222.29 130.063C228.53 122.353 235.48 135.167 255.58 139.752C271.84 143.447 265.83 157.59 260.43 163.263C256.97 164.182 253.74 164.921 253.74 164.921C253.74 164.921 250.17 156.472 253.68 151.218C249.89 152.416 239.63 152.536 233.57 150.109Z" fill="#263238"/>
<path d="M220.8 142.109C220.8 142.109 227.22 150.259 253.68 151.218C242 154.494 227 152.536 220.8 142.109Z" fill="#263238"/>
<path d="M240.78 171.304C240.723 171.296 240.672 171.267 240.636 171.222C240.601 171.177 240.584 171.121 240.59 171.064C240.595 171.002 240.624 170.945 240.671 170.904C240.717 170.863 240.778 170.841 240.84 170.844C241.833 170.914 242.828 170.753 243.748 170.373C244.667 169.994 245.486 169.406 246.14 168.657C246.158 168.633 246.181 168.612 246.208 168.597C246.234 168.581 246.263 168.571 246.293 168.567C246.323 168.563 246.354 168.565 246.384 168.572C246.413 168.58 246.441 168.594 246.465 168.612C246.489 168.63 246.51 168.653 246.525 168.679C246.541 168.706 246.551 168.735 246.555 168.765C246.559 168.795 246.557 168.826 246.549 168.855C246.542 168.885 246.528 168.912 246.51 168.936C245.812 169.753 244.931 170.394 243.939 170.807C242.947 171.22 241.872 171.393 240.8 171.314L240.78 171.304Z" fill="#263238"/>
<path d="M262.75 167.308C261.449 169.418 259.375 170.938 256.97 171.543C253.79 172.312 254.22 169.945 255.24 167.019C256.16 164.372 257.07 160.307 260.24 160.836C263.41 161.366 264.32 164.712 262.75 167.308Z" fill="#CE7A63"/>
<path d="M243.47 159.708C243.47 160.507 243.06 161.156 242.54 161.166C242.02 161.176 241.59 160.547 241.59 159.748C241.59 158.949 242 158.309 242.52 158.289C243.04 158.269 243.47 158.919 243.47 159.708Z" fill="#263238"/>
<path d="M234.23 159.907C234.23 160.706 233.82 161.356 233.3 161.376C232.78 161.396 232.3 160.746 232.3 159.957C232.3 159.168 232.71 158.509 233.23 158.489C233.75 158.469 234.23 159.118 234.23 159.907Z" fill="#263238"/>
<path d="M237.34 160.247C237.34 160.247 235.55 164.861 233.57 167.119C234.99 168.407 237.38 167.748 237.38 167.748L237.34 160.247Z" fill="#BA4D3C"/>
<path d="M247.46 155.573C247.398 155.577 247.336 155.569 247.277 155.548C247.219 155.528 247.165 155.495 247.12 155.453C246.715 155.032 246.215 154.715 245.661 154.529C245.107 154.343 244.517 154.293 243.94 154.384C243.881 154.399 243.819 154.401 243.759 154.391C243.699 154.382 243.641 154.36 243.59 154.327C243.539 154.294 243.494 154.252 243.46 154.201C243.426 154.151 243.402 154.094 243.39 154.034C243.366 153.913 243.39 153.787 243.457 153.682C243.524 153.578 243.629 153.504 243.75 153.475C244.472 153.355 245.213 153.41 245.909 153.636C246.605 153.862 247.237 154.252 247.75 154.774C247.837 154.861 247.885 154.98 247.885 155.103C247.885 155.227 247.837 155.345 247.75 155.433C247.674 155.514 247.571 155.563 247.46 155.573Z" fill="#263238"/>
<path d="M234 155.313C234.009 155.362 234.009 155.413 234 155.463C234.003 155.524 233.993 155.586 233.971 155.643C233.949 155.701 233.915 155.753 233.872 155.797C233.829 155.841 233.777 155.876 233.72 155.899C233.663 155.922 233.602 155.934 233.54 155.932C232.793 155.958 232.051 155.807 231.374 155.493C230.696 155.179 230.102 154.71 229.64 154.124C229.604 154.075 229.579 154.019 229.566 153.96C229.553 153.9 229.552 153.839 229.563 153.779C229.574 153.719 229.597 153.662 229.631 153.612C229.665 153.561 229.709 153.518 229.76 153.485C229.862 153.416 229.988 153.389 230.11 153.412C230.231 153.434 230.339 153.504 230.41 153.605C230.784 154.063 231.26 154.427 231.8 154.67C232.34 154.913 232.929 155.027 233.52 155.003C233.622 154.998 233.724 155.025 233.81 155.081C233.896 155.137 233.962 155.218 234 155.313Z" fill="#263238"/>
<path d="M313.7 204.114C313.345 201.214 312.794 198.34 312.05 195.514C311.827 194.689 311.317 193.971 310.611 193.487C309.906 193.004 309.051 192.787 308.2 192.876C307.349 192.965 306.557 193.354 305.967 193.973C305.377 194.592 305.027 195.4 304.98 196.254V196.403C304.837 201.588 304.295 206.753 303.36 211.855C303.129 212.969 302.825 214.067 302.45 215.141C302.226 215.763 301.948 216.365 301.62 216.939L301.46 216.859C299.636 216.029 297.937 214.95 296.41 213.653C294.573 212.096 292.833 210.428 291.2 208.659C289.51 206.821 287.84 204.893 286.2 202.886C285.4 201.887 284.62 200.888 283.83 199.889L282.68 198.351L281.61 196.893L281.44 196.653C280.336 195.13 278.678 194.1 276.823 193.783C274.967 193.467 273.061 193.888 271.513 194.958C269.965 196.027 268.898 197.66 268.54 199.506C268.183 201.352 268.563 203.264 269.6 204.833C270.09 205.582 270.47 206.142 270.9 206.771C271.33 207.4 271.76 207.979 272.2 208.579C273.07 209.767 273.99 210.916 274.92 212.065C276.8 214.374 278.803 216.582 280.92 218.677C282.01 219.735 283.13 220.774 284.31 221.783C285.49 222.792 286.76 223.78 288.08 224.689C290.938 226.767 294.131 228.341 297.52 229.344C300.22 230.19 303.128 230.099 305.77 229.084C307.194 228.489 308.481 227.609 309.55 226.497C310.41 225.605 311.141 224.596 311.72 223.501C312.606 221.785 313.22 219.942 313.54 218.037C313.836 216.431 314.017 214.805 314.08 213.173C314.202 210.148 314.075 207.118 313.7 204.114Z" fill="#CE7A63"/>
<path d="M260 275.298L243.55 276.497C243.55 276.497 185.89 289.861 188.11 320.204C189.6 340.58 198.27 373.54 204.22 394.345H217.72C216.91 373.54 218.37 341.588 212.72 320.764C221.46 319.155 251.48 308.438 262.08 304.903C264.633 300.295 265.795 295.047 265.426 289.793C265.056 284.54 263.172 279.505 260 275.298Z" fill="#263238"/>
<path opacity="0.4" d="M240.87 293.956C229.52 302.565 227.95 313.382 229.52 315.929C234.52 314.311 239.9 312.484 244.97 310.746C245 304.683 245.53 290.43 240.87 293.956Z" fill="black"/>
<path d="M281.74 273.72L260 275.298L281.74 273.73V273.72Z" fill="#263238"/>
<path d="M296.18 272.672L260 275.298C260 275.298 233 296.133 233.89 306.261C234.138 310.267 234.977 314.215 236.38 317.977C243.65 337.294 258.16 372.451 267.02 394.325H280.75C276.68 371.862 272.27 335.746 263.29 319.415C272.79 315.18 285.78 309.827 294.73 303.005C304.77 295.404 296.18 272.672 296.18 272.672Z" fill="#263238"/>
<path d="M209.93 413.502L218.37 413.652C218.37 413.652 218.16 405.821 217.72 394.325H204.22C207.48 405.761 209.93 413.502 209.93 413.502Z" fill="#CE7A63"/>
<path d="M207.82 407.209L218.82 407.289C219.018 407.289 219.209 407.36 219.359 407.488C219.509 407.616 219.609 407.794 219.64 407.989L221.01 416.978C221.04 417.202 221.022 417.43 220.956 417.646C220.89 417.863 220.778 418.062 220.629 418.232C220.479 418.401 220.294 418.537 220.087 418.629C219.881 418.721 219.656 418.768 219.43 418.765C215.43 418.666 209.7 418.386 204.7 418.346C198.84 418.346 198.99 418.586 192.12 418.536C187.97 418.536 187.12 414.291 188.87 413.931C196.87 412.263 198.15 412.124 205.29 407.939C206.049 407.464 206.925 407.212 207.82 407.209Z" fill="#263238"/>
<path d="M274.79 413.502L284.09 413.652C284.09 413.652 282.81 405.751 280.75 394.325H267C271.63 405.741 274.79 413.502 274.79 413.502Z" fill="#CE7A63"/>
<path d="M272.66 407.209L283.66 407.289C283.861 407.293 284.055 407.364 284.211 407.491C284.366 407.618 284.475 407.793 284.52 407.988L286.45 416.978C286.499 417.195 286.497 417.421 286.445 417.638C286.394 417.855 286.293 418.057 286.151 418.229C286.01 418.402 285.831 418.54 285.628 418.632C285.425 418.725 285.203 418.771 284.98 418.765C280.98 418.666 275.23 418.386 270.22 418.346C264.36 418.346 269.14 418.586 262.27 418.536C258.12 418.536 257.01 414.361 258.74 413.931C265.21 412.293 267.55 410.615 270.17 407.939C270.514 407.655 270.912 407.445 271.34 407.319C271.768 407.194 272.217 407.157 272.66 407.209Z" fill="#263238"/>
<path d="M353 221.164C345 221.164 338.51 206.631 338.51 188.703C338.51 170.774 345 156.252 353 156.252H358.43V221.174L353 221.164Z" fill="#407BFF"/>
<path opacity="0.2" d="M353 221.164C345 221.164 338.51 206.631 338.51 188.703C338.51 170.774 345 156.252 353 156.252H358.43V221.174L353 221.164Z" fill="black"/>
<path d="M358.43 221.154C366.433 221.154 372.92 206.625 372.92 188.703C372.92 170.781 366.433 156.252 358.43 156.252C350.427 156.252 343.94 170.781 343.94 188.703C343.94 206.625 350.427 221.154 358.43 221.154Z" fill="#407BFF"/>
<path d="M361.49 221.164C353.49 221.164 347 206.631 347 188.703C347 170.774 353.49 156.252 361.49 156.252H366.92V221.174L361.49 221.164Z" fill="#407BFF"/>
<path opacity="0.2" d="M361.49 221.164C353.49 221.164 347 206.631 347 188.703C347 170.774 353.49 156.252 361.49 156.252H366.92V221.174L361.49 221.164Z" fill="black"/>
<path d="M382.63 174.979C381.31 168.277 379.04 162.744 376.07 158.998L376.85 158.379C379.93 162.275 382.26 167.958 383.62 174.819L382.63 174.979Z" fill="#407BFF"/>
<path d="M384.91 188.703H383.91C383.912 186.054 383.775 183.407 383.5 180.772L384.5 180.662C384.78 183.333 384.917 186.017 384.91 188.703Z" fill="#407BFF"/>
<path d="M366.92 221.154C374.923 221.154 381.41 206.625 381.41 188.703C381.41 170.781 374.923 156.252 366.92 156.252C358.917 156.252 352.43 170.781 352.43 188.703C352.43 206.625 358.917 221.154 366.92 221.154Z" fill="#407BFF"/>
<path d="M368.61 206.431C364.24 206.431 360.69 198.441 360.69 188.703C360.69 178.964 364.24 170.984 368.61 170.984H371.61V206.431H368.61Z" fill="#407BFF"/>
<path opacity="0.2" d="M371.57 206.431H368.57C364.21 206.431 360.66 198.441 360.66 188.713C360.66 178.984 364.21 170.984 368.57 170.984H371.57C367.2 170.984 363.66 178.914 363.66 188.713C363.66 198.511 367.2 206.431 371.57 206.431Z" fill="black"/>
<path opacity="0.1" d="M371.57 206.421C375.939 206.421 379.48 198.488 379.48 188.703C379.48 178.917 375.939 170.984 371.57 170.984C367.201 170.984 363.66 178.917 363.66 188.703C363.66 198.488 367.201 206.421 371.57 206.421Z" fill="white"/>
<path d="M425.66 320.614L398.17 415.739H403.22L430.71 320.614H425.66Z" fill="#263238"/>
<path d="M341.84 415.739H346.89L374.38 320.614H369.32L341.84 415.739Z" fill="#263238"/>
<path d="M337.32 407.589C331.952 407.589 326.804 405.459 323.008 401.668C319.212 397.877 317.08 392.735 317.08 387.373C317.08 382.012 319.212 376.87 323.008 373.079C326.804 369.288 331.952 367.158 337.32 367.158H340.4V407.589H337.32Z" fill="#407BFF"/>
<path opacity="0.2" d="M337.32 407.589C331.952 407.589 326.804 405.459 323.008 401.668C319.212 397.877 317.08 392.735 317.08 387.373C317.08 382.012 319.212 376.87 323.008 373.079C326.804 369.288 331.952 367.158 337.32 367.158H340.4V407.589H337.32Z" fill="black"/>
<path d="M340.4 407.589C351.578 407.589 360.64 398.538 360.64 387.373C360.64 376.208 351.578 367.158 340.4 367.158C329.222 367.158 320.16 376.208 320.16 387.373C320.16 398.538 329.222 407.589 340.4 407.589Z" fill="#407BFF"/>
<path opacity="0.1" d="M337.32 367.158H340.4C345.768 367.158 350.916 369.288 354.712 373.079C358.508 376.87 360.64 382.012 360.64 387.373C360.64 392.735 358.508 397.877 354.712 401.668C350.916 405.459 345.768 407.589 340.4 407.589H337.32C331.952 407.589 326.804 405.459 323.008 401.668C319.212 397.877 317.08 392.735 317.08 387.373C317.08 382.012 319.212 376.87 323.008 373.079C326.804 369.288 331.952 367.158 337.32 367.158Z" fill="black"/>
<path d="M342.63 407.589C337.262 407.589 332.114 405.459 328.318 401.668C324.522 397.877 322.39 392.735 322.39 387.373C322.39 382.012 324.522 376.87 328.318 373.079C332.114 369.288 337.262 367.158 342.63 367.158H345.71V407.589H342.63Z" fill="#407BFF"/>
<path opacity="0.2" d="M342.63 407.589C337.262 407.589 332.114 405.459 328.318 401.668C324.522 397.877 322.39 392.735 322.39 387.373C322.39 382.012 324.522 376.87 328.318 373.079C332.114 369.288 337.262 367.158 342.63 367.158H345.71V407.589H342.63Z" fill="black"/>
<path d="M345.71 407.589C356.888 407.589 365.95 398.538 365.95 387.373C365.95 376.208 356.888 367.158 345.71 367.158C334.532 367.158 325.47 376.208 325.47 387.373C325.47 398.538 334.532 407.589 345.71 407.589Z" fill="#407BFF"/>
<path opacity="0.1" d="M342.63 367.158H345.71C351.078 367.158 356.226 369.288 360.022 373.079C363.818 376.87 365.95 382.012 365.95 387.373C365.95 392.735 363.818 397.877 360.022 401.668C356.226 405.459 351.078 407.589 345.71 407.589H342.63C337.262 407.589 332.114 405.459 328.318 401.668C324.522 397.877 322.39 392.735 322.39 387.373C322.39 382.012 324.522 376.87 328.318 373.079C332.114 369.288 337.262 367.158 342.63 367.158Z" fill="black"/>
<path d="M348.9 392.098H383.5C383.599 392.098 383.698 392.078 383.789 392.04C383.881 392.001 383.964 391.945 384.034 391.875C384.104 391.804 384.159 391.72 384.196 391.628C384.233 391.536 384.251 391.438 384.25 391.338V383.408C384.251 383.309 384.233 383.21 384.196 383.118C384.159 383.026 384.104 382.943 384.034 382.872C383.964 382.801 383.881 382.745 383.789 382.707C383.698 382.669 383.599 382.649 383.5 382.649H348.9C348.279 382.649 347.664 382.771 347.09 383.009C346.516 383.246 345.995 383.594 345.555 384.033C345.116 384.471 344.768 384.992 344.53 385.565C344.292 386.139 344.17 386.753 344.17 387.373C344.17 388.626 344.668 389.828 345.555 390.714C346.442 391.6 347.646 392.098 348.9 392.098Z" fill="#263238"/>
<path d="M389.42 407.589C384.052 407.589 378.904 405.459 375.108 401.668C371.312 397.877 369.18 392.735 369.18 387.373C369.18 382.012 371.312 376.87 375.108 373.079C378.904 369.288 384.052 367.158 389.42 367.158H392.5V407.589H389.42Z" fill="#407BFF"/>
<path opacity="0.2" d="M389.42 407.589C384.052 407.589 378.904 405.459 375.108 401.668C371.312 397.877 369.18 392.735 369.18 387.373C369.18 382.012 371.312 376.87 375.108 373.079C378.904 369.288 384.052 367.158 389.42 367.158H392.5V407.589H389.42Z" fill="black"/>
<path d="M392.5 407.589C403.678 407.589 412.74 398.538 412.74 387.373C412.74 376.208 403.678 367.158 392.5 367.158C381.322 367.158 372.26 376.208 372.26 387.373C372.26 398.538 381.322 407.589 392.5 407.589Z" fill="#407BFF"/>
<path d="M394.72 407.589C389.352 407.589 384.204 405.459 380.408 401.668C376.612 397.877 374.48 392.735 374.48 387.373C374.48 382.012 376.612 376.87 380.408 373.079C384.204 369.288 389.352 367.158 394.72 367.158H397.8V407.589H394.72Z" fill="#407BFF"/>
<path opacity="0.2" d="M394.72 407.589C389.352 407.589 384.204 405.459 380.408 401.668C376.612 397.877 374.48 392.735 374.48 387.373C374.48 382.012 376.612 376.87 380.408 373.079C384.204 369.288 389.352 367.158 394.72 367.158H397.8V407.589H394.72Z" fill="black"/>
<path d="M397.8 407.589C408.978 407.589 418.04 398.538 418.04 387.373C418.04 376.208 408.978 367.158 397.8 367.158C386.622 367.158 377.56 376.208 377.56 387.373C377.56 398.538 386.622 407.589 397.8 407.589Z" fill="#407BFF"/>
<path opacity="0.2" d="M396.39 397.901C393.595 397.901 390.914 396.791 388.937 394.817C386.96 392.843 385.85 390.165 385.85 387.373C385.85 384.581 386.96 381.904 388.937 379.929C390.914 377.955 393.595 376.846 396.39 376.846H399.22V397.901H396.39Z" fill="black"/>
<path d="M399.22 397.901C405.041 397.901 409.76 393.187 409.76 387.373C409.76 381.559 405.041 376.846 399.22 376.846C393.399 376.846 388.68 381.559 388.68 387.373C388.68 393.187 393.399 397.901 399.22 397.901Z" fill="#407BFF"/>
<path d="M356.14 361.654C353.749 361.711 351.371 361.289 349.146 360.414C346.92 359.539 344.893 358.229 343.182 356.56C341.471 354.891 340.111 352.897 339.183 350.696C338.255 348.494 337.776 346.13 337.776 343.741C337.776 341.352 338.255 338.988 339.183 336.786C340.111 334.585 341.471 332.591 343.182 330.922C344.893 329.253 346.92 327.942 349.146 327.068C351.371 326.193 353.749 325.771 356.14 325.827H358.87V361.654H356.14Z" fill="#407BFF"/>
<path opacity="0.2" d="M356.14 361.654C353.749 361.711 351.371 361.289 349.146 360.414C346.92 359.539 344.893 358.229 343.182 356.56C341.471 354.891 340.111 352.897 339.183 350.696C338.255 348.494 337.776 346.13 337.776 343.741C337.776 341.352 338.255 338.988 339.183 336.786C340.111 334.585 341.471 332.591 343.182 330.922C344.893 329.253 346.92 327.942 349.146 327.068C351.371 326.193 353.749 325.771 356.14 325.827H358.87V361.654H356.14Z" fill="black"/>
<path d="M376.776 343.981C376.924 334.091 369.018 325.954 359.117 325.806C349.215 325.657 341.068 333.554 340.92 343.443C340.771 353.333 348.677 361.47 358.578 361.618C368.48 361.767 376.627 353.87 376.776 343.981Z" fill="#407BFF"/>
<path opacity="0.1" d="M356.14 325.827H358.87C363.553 325.938 368.008 327.874 371.281 331.221C374.554 334.568 376.386 339.062 376.386 343.741C376.386 348.42 374.554 352.913 371.281 356.261C368.008 359.608 363.553 361.544 358.87 361.654H356.14C353.749 361.711 351.371 361.289 349.146 360.414C346.92 359.539 344.893 358.229 343.182 356.56C341.471 354.891 340.111 352.897 339.183 350.696C338.255 348.494 337.776 346.13 337.776 343.741C337.776 341.352 338.255 338.988 339.183 336.786C340.111 334.585 341.471 332.591 343.182 330.922C344.893 329.253 346.92 327.942 349.146 327.068C351.371 326.193 353.749 325.771 356.14 325.827Z" fill="black"/>
<path d="M360.84 361.654C356.157 361.544 351.702 359.608 348.429 356.261C345.156 352.913 343.324 348.42 343.324 343.741C343.324 339.062 345.156 334.568 348.429 331.221C351.702 327.874 356.157 325.938 360.84 325.827H363.57V361.654H360.84Z" fill="#407BFF"/>
<path opacity="0.2" d="M360.84 361.654C356.157 361.544 351.702 359.608 348.429 356.261C345.156 352.913 343.324 348.42 343.324 343.741C343.324 339.062 345.156 334.568 348.429 331.221C351.702 327.874 356.157 325.938 360.84 325.827H363.57V361.654H360.84Z" fill="black"/>
<path d="M381.476 343.991C381.625 334.102 373.719 325.964 363.817 325.816C353.916 325.668 345.769 333.564 345.62 343.454C345.472 353.343 353.378 361.48 363.279 361.629C373.18 361.777 381.328 353.881 381.476 343.991Z" fill="#407BFF"/>
<path opacity="0.1" d="M360.84 325.827H363.57C365.961 325.771 368.339 326.193 370.564 327.068C372.79 327.942 374.817 329.253 376.528 330.922C378.239 332.591 379.599 334.585 380.527 336.786C381.455 338.988 381.934 341.352 381.934 343.741C381.934 346.13 381.455 348.494 380.527 350.696C379.599 352.897 378.239 354.891 376.528 356.56C374.817 358.229 372.79 359.539 370.564 360.414C368.339 361.289 365.961 361.711 363.57 361.654H360.84C356.157 361.544 351.702 359.608 348.429 356.261C345.156 352.913 343.324 348.42 343.324 343.741C343.324 339.062 345.156 334.568 348.429 331.221C351.702 327.874 356.157 325.938 360.84 325.827Z" fill="black"/>
<path d="M397.06 347.891H366.37C365.267 347.891 364.209 347.453 363.428 346.674C362.648 345.895 362.21 344.838 362.21 343.736C362.21 342.634 362.648 341.577 363.428 340.798C364.209 340.019 365.267 339.581 366.37 339.581H397.06C397.235 339.581 397.403 339.65 397.527 339.774C397.65 339.898 397.72 340.065 397.72 340.24V347.232C397.72 347.406 397.65 347.574 397.527 347.698C397.403 347.821 397.235 347.891 397.06 347.891Z" fill="#263238"/>
<path d="M402.3 361.654C399.909 361.711 397.531 361.289 395.306 360.414C393.08 359.539 391.053 358.229 389.342 356.56C387.631 354.891 386.271 352.897 385.343 350.696C384.415 348.494 383.936 346.13 383.936 343.741C383.936 341.352 384.415 338.988 385.343 336.786C386.271 334.585 387.631 332.591 389.342 330.922C391.053 329.253 393.08 327.942 395.306 327.068C397.531 326.193 399.909 325.771 402.3 325.827H405V361.654H402.3Z" fill="#407BFF"/>
<path opacity="0.2" d="M402.3 361.654C399.909 361.711 397.531 361.289 395.306 360.414C393.08 359.539 391.053 358.229 389.342 356.56C387.631 354.891 386.271 352.897 385.343 350.696C384.415 348.494 383.936 346.13 383.936 343.741C383.936 341.352 384.415 338.988 385.343 336.786C386.271 334.585 387.631 332.591 389.342 330.922C391.053 329.253 393.08 327.942 395.306 327.068C397.531 326.193 399.909 325.771 402.3 325.827H405V361.654H402.3Z" fill="black"/>
<path d="M405.03 361.654C414.932 361.654 422.96 353.636 422.96 343.746C422.96 333.855 414.932 325.837 405.03 325.837C395.128 325.837 387.1 333.855 387.1 343.746C387.1 353.636 395.128 361.654 405.03 361.654Z" fill="#407BFF"/>
<path d="M407 361.654C402.317 361.544 397.862 359.608 394.589 356.261C391.316 352.913 389.484 348.42 389.484 343.741C389.484 339.062 391.316 334.568 394.589 331.221C397.862 327.874 402.317 325.938 407 325.827H409.73V361.654H407Z" fill="#407BFF"/>
<path opacity="0.2" d="M407 361.654C402.317 361.544 397.862 359.608 394.589 356.261C391.316 352.913 389.484 348.42 389.484 343.741C389.484 339.062 391.316 334.568 394.589 331.221C397.862 327.874 402.317 325.938 407 325.827H409.73V361.654H407Z" fill="black"/>
<path d="M409.72 361.654C419.622 361.654 427.65 353.636 427.65 343.746C427.65 333.855 419.622 325.837 409.72 325.837C399.818 325.837 391.79 333.855 391.79 343.746C391.79 353.636 399.818 361.654 409.72 361.654Z" fill="#407BFF"/>
<path opacity="0.2" d="M408.47 353.065C407.218 353.106 405.971 352.895 404.803 352.445C403.635 351.994 402.569 351.314 401.669 350.444C400.769 349.575 400.054 348.533 399.565 347.381C399.076 346.23 398.824 344.992 398.824 343.741C398.824 342.49 399.076 341.252 399.565 340.101C400.054 338.949 400.769 337.907 401.669 337.037C402.569 336.168 403.635 335.487 404.803 335.037C405.971 334.587 407.218 334.376 408.47 334.417H411V353.065H408.47Z" fill="black"/>
<path d="M412.53 351.557C417.688 351.454 421.786 347.194 421.683 342.042C421.58 336.889 417.315 332.796 412.156 332.899C406.998 333.002 402.9 337.263 403.003 342.415C403.106 347.567 407.372 351.66 412.53 351.557Z" fill="#407BFF"/>
<path d="M146.37 371.752C146.37 365.21 140.37 359.896 133.04 359.896C125.71 359.896 119.71 365.21 119.71 371.752C119.725 374.391 120.69 376.937 122.43 378.923C122.78 379.342 123.033 379.833 123.169 380.361C123.306 380.889 123.323 381.441 123.219 381.976C123.116 382.512 122.895 383.017 122.571 383.457C122.248 383.896 121.831 384.258 121.35 384.517C120.853 384.788 120.438 385.188 120.149 385.675C119.861 386.162 119.709 386.718 119.71 387.283V413.712C119.71 414.421 119.992 415.102 120.495 415.604C120.998 416.106 121.679 416.388 122.39 416.388H143.69C144.401 416.388 145.082 416.106 145.585 415.604C146.088 415.102 146.37 414.421 146.37 413.712V387.283C146.371 386.716 146.218 386.16 145.928 385.672C145.637 385.185 145.22 384.786 144.72 384.517C144.239 384.258 143.822 383.896 143.499 383.457C143.175 383.017 142.954 382.512 142.851 381.976C142.747 381.441 142.764 380.889 142.901 380.361C143.037 379.833 143.29 379.342 143.64 378.923C145.383 376.938 146.352 374.393 146.37 371.752Z" fill="#407BFF"/>
<path opacity="0.2" d="M146.37 371.752C146.37 365.21 140.37 359.896 133.04 359.896C125.71 359.896 119.71 365.21 119.71 371.752C119.725 374.391 120.69 376.937 122.43 378.923C122.78 379.342 123.033 379.833 123.169 380.361C123.306 380.889 123.323 381.441 123.219 381.976C123.116 382.512 122.895 383.017 122.571 383.457C122.248 383.896 121.831 384.258 121.35 384.517C120.853 384.788 120.438 385.188 120.149 385.675C119.861 386.162 119.709 386.718 119.71 387.283V413.712C119.71 414.421 119.992 415.102 120.495 415.604C120.998 416.106 121.679 416.388 122.39 416.388H143.69C144.401 416.388 145.082 416.106 145.585 415.604C146.088 415.102 146.37 414.421 146.37 413.712V387.283C146.371 386.716 146.218 386.16 145.928 385.672C145.637 385.185 145.22 384.786 144.72 384.517C144.239 384.258 143.822 383.896 143.499 383.457C143.175 383.017 142.954 382.512 142.851 381.976C142.747 381.441 142.764 380.889 142.901 380.361C143.037 379.833 143.29 379.342 143.64 378.923C145.383 376.938 146.352 374.393 146.37 371.752Z" fill="white"/>
<path d="M138.61 362.184H127.46C126.854 362.181 126.274 361.939 125.847 361.51C125.42 361.082 125.18 360.501 125.18 359.896C125.183 359.293 125.424 358.716 125.851 358.289C126.278 357.863 126.856 357.622 127.46 357.619H138.61C139.216 357.619 139.797 357.859 140.226 358.286C140.655 358.712 140.897 359.291 140.9 359.896C140.897 360.502 140.655 361.082 140.226 361.511C139.797 361.939 139.217 362.181 138.61 362.184Z" fill="#263238"/>
<path d="M135.22 353.174H130.86C130.065 353.174 129.42 353.818 129.42 354.613V358.458C129.42 359.252 130.065 359.896 130.86 359.896H135.22C136.015 359.896 136.66 359.252 136.66 358.458V354.613C136.66 353.818 136.015 353.174 135.22 353.174Z" fill="#263238"/>
</svg>
