<svg width="512" height="512" viewBox="0 0 512 512" fill="none" xmlns="http://www.w3.org/2000/svg">
<g clip-path="url(#clip0_18777_28975)">
<path d="M256 7.5C181.563 7.5 121.22 67.843 121.22 142.28H390.78C390.78 85.723 355.945 37.303 306.561 17.305C290.947 10.982 273.88 7.5 256 7.5Z" fill="#FFCE71"/>
<path d="M306.56 17.304C290.951 10.985 273.875 7.5 256 7.5C181.563 7.5 121.22 67.843 121.22 142.28H222.305C222.305 85.718 257.169 37.299 306.56 17.304Z" fill="#FFB357"/>
<path d="M256 277.059C380.062 277.059 480.633 226.773 480.633 164.743C480.633 102.712 380.062 52.4268 256 52.4268C131.939 52.4268 31.3672 102.712 31.3672 164.743C31.3672 226.773 131.939 277.059 256 277.059Z" fill="#FFB357"/>
<path d="M256 348.377V445.034C302.542 445.034 349.084 440.291 394.897 430.807L394.898 430.806C408.79 427.93 418.753 415.693 418.753 401.507V348.377H256Z" fill="#676F72"/>
<path d="M93.2471 348.377V401.507C93.2471 415.694 103.21 427.93 117.102 430.806L117.103 430.807C162.916 440.291 209.458 445.034 256 445.034V348.377H93.2471Z" fill="#4C5659"/>
<path d="M323.88 436.324C311.357 420.599 293.589 409.298 273.279 405.153C267.693 404.013 261.914 403.415 255.999 403.415C228.58 403.415 204.086 416.274 188.119 436.324C176.136 451.371 168.954 470.466 168.954 491.224V504.5H256H343.045V491.224C343.045 484.443 342.278 477.839 340.828 471.495C337.84 458.422 331.948 446.455 323.88 436.324Z" fill="#FFCE71"/>
<path d="M273.279 405.153C267.692 404.013 261.914 403.415 255.999 403.415C228.58 403.415 204.086 416.274 188.119 436.324C180.051 446.455 174.159 458.422 171.171 471.495C169.721 477.838 168.955 484.442 168.955 491.224V504.5H203.543V491.224C203.542 448.841 233.559 413.27 273.279 405.153Z" fill="#FFB357"/>
<path d="M256 380.942L213.46 414.637C218.317 444.577 237.158 459.559 256 459.564C274.839 459.568 293.679 444.599 298.54 414.637L256 380.942Z" fill="#FFCBBE"/>
<path d="M187.982 436.497C179.984 446.591 174.143 458.495 171.171 471.495C169.721 477.838 168.955 484.442 168.955 491.224V504.5H203.542V474.373C203.542 460.188 197.942 446.584 187.982 436.497Z" fill="#FFCBBE"/>
<path d="M324.018 436.497C314.057 446.584 308.458 460.188 308.458 474.373V504.5H343.045V491.224C343.045 484.443 342.279 477.839 340.829 471.495C337.857 458.495 332.016 446.592 324.018 436.497Z" fill="#FFDDCF"/>
<path d="M418.859 218.093H93.1411C71.4301 218.093 53.8301 235.693 53.8301 257.404C53.8301 279.115 71.4301 296.715 93.1411 296.715H418.859C440.57 296.715 458.17 279.115 458.17 257.404C458.17 235.693 440.569 218.093 418.859 218.093Z" fill="#FFCBBE"/>
<path d="M283.122 96.8059C274.301 95.3269 265.242 94.5449 256 94.5449C246.758 94.5449 237.7 95.3269 228.879 96.8059C151.846 109.721 93.1411 176.701 93.1411 257.404C93.1411 338.107 151.845 405.087 228.879 418.002C237.701 419.481 246.758 420.263 256 420.263C265.242 420.263 274.3 419.481 283.122 418.002C360.155 405.087 418.859 338.107 418.859 257.404C418.859 176.701 360.155 109.721 283.122 96.8059Z" fill="#FFDDCF"/>
<path d="M147.164 257.63C147.164 176.784 205.974 109.683 283.121 96.8059C274.3 95.3269 265.241 94.5449 255.999 94.5449C246.757 94.5449 237.699 95.3269 228.878 96.8059C151.845 109.721 93.1401 176.701 93.1401 257.404C93.1401 338.107 151.844 405.087 228.878 418.002C237.7 419.481 246.757 420.263 255.999 420.263C265.241 420.263 274.299 419.481 283.121 418.002C205.975 405.124 147.164 338.474 147.164 257.63Z" fill="#FFCBBE"/>
<path d="M167.97 336.102C185.909 336.102 200.451 324.521 200.451 310.235C200.451 295.949 185.909 284.368 167.97 284.368C150.031 284.368 135.489 295.949 135.489 310.235C135.489 324.521 150.031 336.102 167.97 336.102Z" fill="#FF8E9E"/>
<path d="M344.03 336.102C361.969 336.102 376.511 324.521 376.511 310.235C376.511 295.949 361.969 284.368 344.03 284.368C326.092 284.368 311.549 295.949 311.549 310.235C311.549 324.521 326.092 336.102 344.03 336.102Z" fill="#FF8E9E"/>
<path d="M284.514 88.4981C275.106 86.9211 265.512 86.1211 256 86.1211C246.488 86.1211 236.895 86.9211 227.486 88.4981C169.989 98.1381 122.804 136.328 99.8321 187.183C95.4931 196.788 93.2461 207.208 93.2461 217.748V383.126H146.596V248.992H162.953C213.292 248.992 262.685 232.455 302.893 202.28L332.479 231.865C341.511 240.899 352.98 246.612 365.402 248.393V383.125H418.752V217.748C418.752 207.208 416.505 196.789 412.166 187.183C389.196 136.328 342.011 98.1381 284.514 88.4981Z" fill="#676F72"/>
<path d="M343.032 109.92C325.376 99.4531 305.646 92.0421 284.514 88.4991C275.106 86.9221 265.512 86.1221 256 86.1221C246.488 86.1221 236.895 86.9221 227.486 88.4991C169.989 98.1391 122.804 136.328 99.8321 187.184C95.4931 196.789 93.2461 207.209 93.2461 217.749V383.127H146.596V248.992H162.953C181.972 248.992 200.855 246.628 219.16 242.063C221.852 224.904 227.331 208.11 235.564 192.377C257.519 150.425 296.827 120.264 343.032 109.92Z" fill="#4C5659"/>
<path d="M186.9 259.128C174.24 259.128 163.94 269.428 163.94 282.088C163.94 286.231 167.298 289.588 171.44 289.588C175.582 289.588 178.94 286.231 178.94 282.088C178.94 277.699 182.511 274.128 186.9 274.128C191.29 274.128 194.861 277.699 194.861 282.088C194.861 286.231 198.219 289.588 202.361 289.588C206.503 289.588 209.861 286.231 209.861 282.088C209.861 269.428 199.561 259.128 186.9 259.128Z" fill="black"/>
<path d="M309.639 289.588C313.781 289.588 317.139 286.231 317.139 282.088C317.139 277.699 320.71 274.128 325.099 274.128C329.488 274.128 333.06 277.699 333.06 282.088C333.06 286.231 336.417 289.588 340.56 289.588C344.703 289.588 348.06 286.231 348.06 282.088C348.06 269.428 337.76 259.128 325.099 259.128C312.438 259.128 302.139 269.428 302.139 282.088C302.139 286.23 305.497 289.588 309.639 289.588Z" fill="black"/>
<path d="M278.054 298.347C280.775 295.224 280.45 290.487 277.327 287.765C274.203 285.044 269.467 285.369 266.745 288.492C264.032 291.605 260.115 293.391 256 293.391C251.885 293.391 247.968 291.605 245.254 288.492C242.532 285.368 237.795 285.044 234.672 287.766C231.549 290.487 231.224 295.225 233.946 298.347C239.509 304.73 247.548 308.391 256 308.391C264.452 308.391 272.491 304.729 278.054 298.347Z" fill="black"/>
<path d="M488.133 164.743C488.133 110.626 424.478 76.325 372.698 60.941C345.929 22.573 302.622 0 256 0C209.369 0 165.964 22.72 139.301 60.903C123.17 65.699 108.097 71.524 94.4192 78.312C90.7092 80.153 89.1932 84.654 91.0352 88.364C92.8752 92.074 97.3742 93.592 101.087 91.748C142.436 71.228 197.451 59.928 256 59.928C294.686 59.928 332.711 64.995 365.965 74.582C432.069 93.64 473.133 128.187 473.133 164.744C473.133 183.157 462.773 201.27 443.103 217.376C437.866 214.208 432.036 212.096 425.991 211.157C425.244 201.808 422.903 192.733 419.003 184.098C394.321 129.455 344.509 90.952 285.754 81.103C266.121 77.813 245.882 77.811 226.246 81.103C167.492 90.953 117.68 129.456 92.9982 184.097C89.0972 192.733 86.7572 201.808 86.0102 211.157C79.9652 212.096 74.1352 214.209 68.8982 217.377C49.2292 201.271 38.8682 183.157 38.8682 164.745C38.8682 138.612 59.2392 118.607 76.3292 106.427C79.7022 104.023 80.4882 99.34 78.0832 95.967C75.6802 92.594 70.9952 91.808 67.6232 94.212C38.9982 114.614 23.8682 139.004 23.8682 164.745C23.8682 187.129 35.4092 208.609 57.3452 227.269C50.2752 235.634 46.3322 246.218 46.3322 257.406C46.3322 280.701 63.4382 300.071 85.7482 303.627V401.51C85.7482 419.164 98.2962 434.575 115.583 438.155C134.152 441.999 153.104 445.095 172.073 447.411C165.245 460.661 161.455 475.486 161.455 491.226V504.5C161.455 508.643 164.813 512 168.955 512H343.045C347.188 512 350.545 508.643 350.545 504.5V491.224C350.545 476.321 347.139 461.404 339.928 447.409C358.899 445.093 377.851 441.996 396.418 438.152C413.706 434.574 426.254 419.164 426.254 401.508V303.625C448.563 300.068 465.67 280.699 465.67 257.404C465.67 246.217 461.726 235.633 454.657 227.267C476.593 208.607 488.133 187.127 488.133 164.743ZM163.754 54.597C187.59 29.507 220.765 15 256 15C291.495 15 324.555 29.595 348.287 54.651C319.338 48.271 287.867 44.927 256 44.927C223.762 44.927 192.489 48.259 163.754 54.597ZM61.3312 257.404C61.3312 242.318 71.8072 229.778 85.7472 226.47V288.338C71.7622 284.995 61.3312 272.398 61.3312 257.404ZM176.455 491.224C176.455 476.204 180.557 461.717 188.438 448.913C193.385 456.418 196.043 465.201 196.043 474.373V497H176.455V491.224ZM197.911 436.424C201.18 432.889 204.739 429.673 208.565 426.797C216.923 454.507 237.553 467.059 255.999 467.064H256.01C274.452 467.064 295.077 454.516 303.436 426.802C307.267 429.68 310.827 432.894 314.091 436.424C305.58 447.21 300.959 460.452 300.959 474.373V497H211.044V474.373C211.042 460.453 206.422 447.211 197.911 436.424ZM241.722 412.111C232.91 411.304 224.279 409.767 215.883 407.541C215.57 407.434 215.252 407.35 214.931 407.285C192.561 401.2 171.901 390.162 154.096 374.661V256.491H162.953C212.497 256.491 261.659 240.775 302.127 212.119L327.175 237.168C335.781 245.774 346.305 251.715 357.903 254.568V374.66C333.199 396.166 302.984 409.095 270.307 412.103C266.182 412.483 263.146 416.134 263.526 420.259C263.884 424.15 267.153 427.072 270.985 427.072C271.215 427.072 271.448 427.062 271.681 427.041C277.318 426.522 282.887 425.73 288.378 424.679C281.606 444.655 267.394 452.063 256.008 452.063C256.007 452.063 256.003 452.063 256.001 452.063C244.612 452.06 230.398 444.65 223.623 424.687C229.124 425.74 234.705 426.531 240.353 427.049C240.586 427.07 240.816 427.08 241.046 427.08C244.879 427.08 248.15 424.156 248.506 420.265C248.885 416.14 245.847 412.489 241.722 412.111ZM335.545 497H315.958V474.373C315.958 465.2 318.616 456.417 323.563 448.913C331.421 461.678 335.546 476.157 335.546 491.224L335.545 497ZM411.254 401.508C411.254 412.086 403.735 421.32 393.377 423.464C372.908 427.701 351.964 431.012 331.053 433.342C326.587 427.469 321.464 422.102 315.391 417.149C330.54 411.53 344.817 403.74 357.904 393.931V408.032C357.904 412.175 361.261 415.532 365.404 415.532C369.547 415.532 372.904 412.175 372.904 408.032V248.394C372.904 244.664 370.162 241.499 366.468 240.97C355.564 239.407 345.645 234.424 337.783 226.562L314.318 203.098L318.027 200.321C321.343 197.839 322.019 193.138 319.536 189.822C317.053 186.506 312.353 185.829 309.037 188.313C309.022 188.324 298.407 196.272 298.391 196.282C259.542 225.437 211.442 241.493 162.953 241.493H146.596C142.454 241.493 139.096 244.85 139.096 248.993V408.033C139.096 412.176 142.454 415.533 146.596 415.533C150.738 415.533 154.096 412.176 154.096 408.033V393.932C167.183 403.744 181.457 411.534 196.599 417.153C190.487 422.141 185.376 427.518 180.946 433.343C160.033 431.012 139.088 427.701 118.62 423.463C108.263 421.319 100.745 412.087 100.745 401.509V217.749C100.745 208.215 102.737 198.97 106.666 190.272C129.285 140.198 174.914 104.917 228.724 95.895C246.726 92.876 265.273 92.878 283.272 95.895C337.083 104.916 382.712 140.198 405.331 190.272C409.26 198.969 411.252 208.214 411.252 217.749V401.508H411.254ZM426.254 288.338V226.471C440.194 229.779 450.67 242.318 450.67 257.405C450.67 272.398 440.239 284.994 426.254 288.338Z" fill="black"/>
</g>
<defs>
<clipPath id="clip0_18777_28975">
<rect width="512" height="512" fill="white"/>
</clipPath>
</defs>
</svg>
